<svg xmlns="http://www.w3.org/2000/svg" width="31" height="31" fill="none"><rect width="31" height="31" fill="#EF3124" rx="15.5"/><path fill="#EFEFF4" d="M14.285 15.762c.481 0 1.006.046 1.366.403s.407.882.407 1.358v2.25c0 .477-.046 1-.407 1.359-.36.356-.885.402-1.366.402h-3.041c-.482 0-1.007-.046-1.367-.402-.36-.359-.407-.883-.407-1.36v-2.249c0-.476.047-1 .407-1.358.36-.357.885-.403 1.367-.403zm6.685.821c.309 0 .559.25.559.559a4.385 4.385 0 0 1-4.388 4.387.56.56 0 0 1-.478-.845l.574-.957a.558.558 0 0 1 .992.5 3.27 3.27 0 0 0 2.184-3.085c0-.309.249-.559.557-.559m-10.383 3.19c0 .472.071.56.078.566.006.006.093.078.579.078h3.04c.485 0 .573-.072.58-.078.002-.003.077-.081.077-.566v-.946h-4.354zm.657-2.894c-.483 0-.572.071-.58.078-.003.004-.076.085-.077.566v.187h4.354v-.187c0-.485-.075-.563-.077-.566-.01-.008-.104-.078-.58-.078zm8.511-7.408c.482 0 1.007.046 1.367.403s.407.881.407 1.358v2.25c0 .477-.046 1-.407 1.359-.36.356-.885.402-1.367.402h-3.04c-.482 0-1.007-.046-1.367-.402-.36-.358-.407-.882-.407-1.36v-2.249c0-.476.047-1 .407-1.358.36-.357.885-.403 1.366-.403zm-5.897 0a.56.56 0 0 1 .48.845l-.575.958a.558.558 0 0 1-.993-.502 3.27 3.27 0 0 0-2.183 3.086.559.559 0 0 1-1.117 0 4.386 4.386 0 0 1 4.388-4.387m2.2 4.01c0 .477.072.562.077.567.006.006.094.078.58.078h3.04c.48 0 .572-.07.58-.078.002-.003.077-.081.077-.567v-.946h-4.354zm.656-2.893c-.482 0-.572.071-.579.078-.005.006-.077.09-.077.566v.186h4.354v-.186c0-.485-.075-.563-.078-.566-.008-.008-.1-.078-.579-.078z"/></svg>