<svg xmlns="http://www.w3.org/2000/svg" width="31" height="31" fill="none"><rect width="31" height="31" fill="#EF3124" rx="15.5"/><path fill="#EFEFF4" d="M8.581 22.699c0 .586.476 1.062 1.062 1.062h.443a.62.62 0 1 1 0 1.238H8.582a1.24 1.24 0 0 1-1.24-1.239v-2.343a.62.62 0 0 1 1.239 0zm15.433.703c0 .684-.555 1.239-1.24 1.239h-2.19a.62.62 0 1 1 0-1.239h1.068c.62 0 1.123-.503 1.123-1.123v-.504a.62.62 0 1 1 1.239 0zm-8.917-1.79a.62.62 0 0 1-1.239 0v-.146a.765.765 0 0 0-.765-.765h-1.346a.765.765 0 0 0-.766.765v.146a.62.62 0 0 1-1.238 0v-.91c0-.685.555-1.24 1.239-1.24h2.876c.684 0 1.239.555 1.239 1.24zm5.554-.62c0 .685-.554 1.24-1.238 1.24h-1.638a1.24 1.24 0 0 1-1.239-1.24v-3.06h2.877c.684 0 1.238.555 1.238 1.24zm-2.877-.82a.82.82 0 0 0 1.64 0v-.182a.82.82 0 1 0-1.64 0zm-1.238-2.24h-5.62a1.24 1.24 0 0 1-1.24-1.238v-4.687c0-.684.555-1.238 1.24-1.238h4.381c.684 0 1.24.554 1.24 1.238zm-5.621-2.477c0 .684.555 1.238 1.239 1.238h1.904c.684 0 1.239-.554 1.239-1.238v-2.21c0-.684-.555-1.238-1.239-1.238h-1.904c-.684 0-1.239.554-1.239 1.239zm9.67-1.007c0 .684-.555 1.239-1.239 1.239h-.819a.62.62 0 0 1 0-1.239h.1a.72.72 0 0 0 .72-.719v-.905a.72.72 0 0 0-.72-.72h-.1a.62.62 0 0 1 0-1.238h.82c.683 0 1.238.555 1.238 1.239zm-6.793-.067a.686.686 0 0 1-1.371 0v-.062a.685.685 0 1 1 1.371 0zm9.879-2.799a.62.62 0 1 1-1.238 0V10.3c0-.586-.476-1.062-1.062-1.062h-.443a.62.62 0 0 1 0-1.238h1.504c.684 0 1.239.555 1.239 1.239zM11.049 8.619a.62.62 0 0 1-.62.62H9.362c-.62 0-1.123.502-1.123 1.122v.504a.62.62 0 1 1-1.238 0V9.24C7 8.555 7.555 8 8.239 8h2.19a.62.62 0 0 1 .62.62"/></svg>