<svg xmlns="http://www.w3.org/2000/svg" width="48.06" height="74.87" viewBox="120.34 120.44 48.06 74.87"><path fill="#ee2a23" d="M144.38 120.44c5.1 0 6.7 3.65 8.04 7.3l14.2 38.9c.1.3.04.8-.43.98l-7.73 3a.74.74 0 0 1-.95-.45L154.2 161h-19.62c-.3.88-3.2 8.8-3.33 9.16a.73.73 0 0 1-.95.44l-7.72-3a.78.78 0 0 1-.44-.97l14.2-38.9c1.29-3.6 2.94-7.3 8.05-7.3m-23.3 64.88a.75.75 0 0 0-.74.76v8.47c0 .42.33.76.74.76h46.58c.42 0 .75-.34.75-.76v-8.47a.75.75 0 0 0-.75-.76zm23.25-53.04-6.63 19.92h13.38l-6.66-19.92z"/></svg>