<svg xmlns="http://www.w3.org/2000/svg" width="452" height="413" fill="none"><g clip-path="url(#a)"><path fill="#EF3124" d="m198 36.29 50.66 105.7 115.2-81.12-63.33 109.08 148.39 1.6-140.23 48.55 94.65 83.38-134.98-40.41-14.53 116.31-50.66-105.7-115.2 81.12 63.33-109.1-148.39-1.57 140.23-48.56L48.5 112.2l134.98 40.41L198 36.3Z"/><path fill="#FF0" d="m211.32 105.37 29.83 62.25 67.84-47.77-37.3 64.23 87.38.94-82.57 28.6 55.74 49.09-79.49-23.8-8.56 68.5-29.83-62.25-67.84 47.77 37.3-64.24-87.38-.94L179 199.16l-55.73-49.1 79.48 23.8 8.56-68.5Z"/><path fill="#1F1E1E" fill-rule="evenodd" d="M153.97 187.05c-.31.42-.67.82-1.07 1.2-.56.6-1.2 1.1-1.9 1.52l-24.1 31.93c.7-.42 1.34-.92 1.9-1.52.4-.38.76-.78 1.07-1.2l24.11-31.92Z" clip-rule="evenodd"/><path fill="#1F1E1E" fill-rule="evenodd" d="M151 189.77a10.2 10.2 0 0 1 5.28 2.88 12.5 12.5 0 0 1 3.03 6.56c.5 3.38-.05 6.14-1.66 8.3l-24.11 31.92c1.6-2.16 2.16-4.92 1.66-8.3a12.5 12.5 0 0 0-3.03-6.56 10.2 10.2 0 0 0-5.28-2.88z" clip-rule="evenodd"/><path fill="#1F1E1E" fill-rule="evenodd" d="M158 209.28c-.13-.68-1.05-.9-1.56-.43-2.5 2.3-5.92 3.73-10.28 4.3l-23.61 3.08a3 3 0 0 1-3.36-2.53l-5.63-38a1.87 1.87 0 0 0-3.7.53l5.52 41.88a3 3 0 0 0 .71 1.57l17.96 20.72c.6.7 1.49 1.08 2.4 1.02a83.7 83.7 0 0 0 21.3-4.56 2.85 2.85 0 0 0 1.78-1.96l1.9-7.05a3 3 0 0 0 .05-1.38z" clip-rule="evenodd"/><path fill="#1F1E1E" fill-rule="evenodd" d="M142.68 185.74c.45-.59.61-1.34.47-2.26-.3-2.1-1.83-2.97-4.57-2.61l-11.84 1.54-11.74 28.6.5 1.5c2.74-.36 3.23.78 3.54 2.88.14.93-.02 1.68-.47 2.27l24.1-31.92Z" clip-rule="evenodd"/><path fill="#1F1E1E" fill-rule="evenodd" d="M146.09 202.26a3.3 3.3 0 0 0 .55-2.6c-.36-2.45-2.2-3.47-5.54-3.03l-12.02 1.57-9.58 23.7 3.54 4.9c3.33-.44 7.1-2.46 7.46 0 .16 1.05 6.53.02 6 .7zm47.11-7.66c.12-.15.22-.3.32-.45l-24.1 31.91c-.1.16-.21.31-.32.45z" clip-rule="evenodd"/><path fill="#1F1E1E" fill-rule="evenodd" d="M193.52 194.15c1.25-1.94 1.66-4.35 1.23-7.24l-3.35-22.61-24.1 31.91 3.34 22.61c.43 2.9.02 5.3-1.23 7.24z" clip-rule="evenodd"/><path fill="#1F1E1E" fill-rule="evenodd" d="m191.4 164.3 12.08-1.58 3.47 23.38c.86 5.84-.17 10.7-3.1 14.58l-24.1 31.91c2.92-3.87 3.95-8.73 3.09-14.57l-3.47-23.38-12.08 1.57z" clip-rule="evenodd"/><path fill="#1F1E1E" fill-rule="evenodd" d="M203.85 200.68c-.18.25-.38.49-.58.73l-24.11 31.91c.2-.23.4-.48.58-.73z" clip-rule="evenodd"/><path fill="#1F1E1E" fill-rule="evenodd" d="M203.27 201.4q-5.055 6-14.28 7.2c-6.38.83-11.76-.25-16.12-3.23-4.33-3.02-6.95-7.62-7.87-13.8l-3.46-23.38L157.7 205l1.8 20.55s-.59 3.87 3.74 6.9c4.37 2.98 9.1 2.8 15.49 1.97 19.02-6.4 14.67-4.75 18.04-8.74l6.5-24.27Z" clip-rule="evenodd"/><path fill="#1F1E1E" fill-rule="evenodd" d="m161.54 168.2 12.25-1.6 3.35 22.6c.43 2.9 1.53 5.11 3.3 6.66 1.76 1.54 4.07 2.13 6.93 1.75 2.62-.34 4.57-1.35 5.84-3.01l-24.11 31.9c-1.27 1.67-3.22 2.68-5.84 3.02-2.86.37-5.17-.21-6.94-1.76-1.76-1.54-2.86-3.76-3.29-6.65l-3.35-22.61-12.25 1.6 24.1-31.92Zm80.43 13.34 5.28-24.53-24.1 31.92-5.29 24.52z" clip-rule="evenodd"/><path fill="#1F1E1E" fill-rule="evenodd" d="m247.25 157.01 16.9-2.2 6.25 42.14-28.42 27.76-1.94-37.99-16.9 2.2 24.11-31.9Z" clip-rule="evenodd"/><path fill="#1F1E1E" fill-rule="evenodd" d="M264.87 202.38a3.5 3.5 0 0 0-3.21-5.65 3.49 3.49 0 0 1-3.93-2.95l-2.26-15.43c-.51-3.47-4.95-4.58-7.12-1.78L230.92 199a4.03 4.03 0 0 0-.8 3.06l3.3 22.5a3.94 3.94 0 0 0 4.43 3.33l6.37-.84a4.08 4.08 0 0 0 2.68-1.54l17.97-23.14Z" clip-rule="evenodd"/><path fill="#1F1E1E" fill-rule="evenodd" d="m254.23 169.71-6.26 30.16-27.36 25.07 9.51-23.31z" clip-rule="evenodd"/><path fill="#1F1E1E" fill-rule="evenodd" d="M243.79 203.62a2.6 2.6 0 0 0-2.4-4.21 2.6 2.6 0 0 1-2.63-1.33l-10.67-19.55a4 4 0 0 0-6.67-.47l-18.87 24.3a4 4 0 0 0-.37 4.36l11.9 21.79a3.95 3.95 0 0 0 3.99 2.01l3.73-.5a4.07 4.07 0 0 0 2.68-1.53l19.3-24.87Z" clip-rule="evenodd"/><path fill="#1F1E1E" fill-rule="evenodd" d="m222.98 169.88 4.23 28.55-24.11 31.92-4.23-28.55 24.1-31.92Z" clip-rule="evenodd"/><path fill="#1F1E1E" fill-rule="evenodd" d="M224.33 207.38a3.3 3.3 0 0 0-3.02-5.31 3.3 3.3 0 0 1-3.7-2.78l-4.2-28.63c-.5-3.47-4.94-4.59-7.11-1.8l-17.43 22.46a4.03 4.03 0 0 0-.81 3.05l5.21 35.52a3.94 3.94 0 0 0 4.44 3.32l5.65-.74a4.07 4.07 0 0 0 2.68-1.55z" clip-rule="evenodd"/><path fill="#1F1E1E" fill-rule="evenodd" d="m212.1 161.6 17.66-2.3 12.21 22.24-24.1 31.91-12.22-22.24-17.67 2.3 24.11-31.91Zm61-7.96 25.94-3.38c4.88-.64 8.88.05 12 2.06 3.18 2 5.11 5.4 5.82 10.2.65 4.35-.02 7.86-2 10.52l-24.11 31.92c1.98-2.67 2.65-6.17 2-10.53-.7-4.79-2.64-8.19-5.81-10.2-3.13-2-7.13-2.7-12.01-2.06l-25.94 3.39 24.1-31.92Z" clip-rule="evenodd"/><path fill="#1F1E1E" fill-rule="evenodd" d="M314.86 173.04c-.2.26-.4.52-.63.77l-24.1 31.91c.21-.24.42-.5.62-.76z" clip-rule="evenodd"/><path fill="#1F1E1E" fill-rule="evenodd" d="M314.23 173.8c-2.42 2.74-6.07 4.43-10.95 5.06l-13.8 1.8-23.29 37.63 9.31-1.88c4.88-.64 23.58-7.4 26.01-10.14l12.72-32.46Z" clip-rule="evenodd"/><path fill="#1F1E1E" fill-rule="evenodd" d="m289.48 180.66 2 13.54-27.83 29.19 1.71-10.8z" clip-rule="evenodd"/><path fill="#1F1E1E" fill-rule="evenodd" d="M285.84 199.72a3.57 3.57 0 0 0-3.27-5.76 3.56 3.56 0 0 1-4-3l-4.17-28.37c-.51-3.47-4.95-4.58-7.12-1.79l-17.43 22.45a4.03 4.03 0 0 0-.8 3.05l5.2 35.52a3.94 3.94 0 0 0 4.44 3.33l6.61-.88a4.08 4.08 0 0 0 2.68-1.54l17.86-23Z" clip-rule="evenodd"/><path fill="#1F1E1E" fill-rule="evenodd" d="m286.78 162.5 1.15 7.72 12.31-1.6c1.7-.23 2.87-.77 3.54-1.62l-24.11 31.92c-.67.85-1.85 1.39-3.54 1.6l-12.31 1.61-1.15-7.71z" clip-rule="evenodd"/><path fill="#1F1E1E" fill-rule="evenodd" d="M303.78 167c.57-.72.77-1.68.6-2.86-.4-2.57-2.15-3.65-5.28-3.24l-12.32 1.6-24.1 31.92 12.3-1.6c3.14-.42 4.9.67 5.28 3.24.18 1.18-.02 2.13-.59 2.86zm17.9-19.7 11.66-1.52 4.12 27.84-24.1 31.92-4.13-27.84-11.67 1.52z" clip-rule="evenodd"/><path fill="#1F1E1E" fill-rule="evenodd" d="m337.46 173.62-11.66 1.52-4.13-27.83-24.1 31.91 4.12 27.84 11.66-1.52z" clip-rule="evenodd"/><path fill="#1F1E1E" fill-rule="evenodd" d="m325.46 178.15 13.2-1.72 1.7 11.4-24.19 28.52-1.61-8-13.21 1.72 24.1-31.92Z" clip-rule="evenodd"/><path fill="#1F1E1E" fill-rule="evenodd" d="M342.78 191.4c2.99-2.9.2-7.81-3.8-6.7l-8.25 2.32a3.52 3.52 0 0 1-4.45-2.87 3.55 3.55 0 0 0-6.1-1.88l-24.5 25.55a3.98 3.98 0 0 0 .25 5.78l5.34 4.59a3.97 3.97 0 0 0 3.1.91l10.1-1.33a4.07 4.07 0 0 0 2.3-1.12z" clip-rule="evenodd"/><mask id="b" width="237.82" height="82.43" x="108.27" y="140.7" fill="#000" maskUnits="userSpaceOnUse"><path fill="#fff" d="M108.27 140.7h237.82v82.43H108.27z"/><path d="m119.62 216.61-6.24-42.14 26.17-3.41c4.09-.53 7.6-.02 10.54 1.53 2.98 1.55 4.75 4.24 5.32 8.08a8.2 8.2 0 0 1-2.51 7.59c-.56.6-1.2 1.1-1.9 1.51q2.865.54 5.28 2.88a12.5 12.5 0 0 1 3.03 6.56c.61 4.12-.34 7.33-2.87 9.64-2.5 2.3-5.92 3.73-10.28 4.3zm18.96-35.74-11.84 1.54.94 6.3 11.83-1.55c2.74-.36 3.96-1.59 3.64-3.68-.3-2.1-1.83-2.97-4.57-2.61m2.52 15.76-12.02 1.57 1.1 7.36 12.01-1.57c3.33-.44 4.82-1.88 4.45-4.33-.36-2.45-2.2-3.47-5.54-3.03m39.33-.78c1.77 1.55 4.08 2.14 6.94 1.76 2.85-.37 4.9-1.52 6.15-3.46s1.66-4.35 1.23-7.24l-3.35-22.61 12.08-1.58 3.47 23.38c.92 6.22-.3 11.32-3.68 15.3q-5.055 6-14.28 7.2c-6.38.83-11.76-.25-16.12-3.23-4.33-3.02-6.95-7.62-7.87-13.8l-3.47-23.38 12.26-1.6 3.35 22.62c.43 2.88 1.53 5.1 3.3 6.64Zm49.33-36.56 12.21 22.25 5.28-24.53 16.9-2.2 6.25 42.14-11.9 1.55-4.27-28.79-6.26 30.16-8.1 1.06-14.58-27.2 4.23 28.55-11.18 1.46-6.25-42.14 17.67-2.3Zm49.58 36.49-6.24-42.14 25.94-3.38c4.88-.64 8.88.05 12 2.06 3.18 2 5.11 5.4 5.82 10.2.71 4.78-.16 8.54-2.63 11.29-2.42 2.73-6.07 4.42-10.95 5.05l-13.8 1.8 2 13.54zm19.76-34.88-12.32 1.6 1.15 7.72 12.31-1.6c3.14-.42 4.51-1.9 4.13-4.48-.38-2.57-2.14-3.65-5.27-3.24m26.7 14.24-4.13-27.84 11.67-1.52 4.12 27.84zm1.35 14.4-1.7-11.4 13.22-1.71 1.69 11.4z"/></mask><path fill="#8FFF00" d="m119.62 216.61-6.24-42.14 26.17-3.41c4.09-.53 7.6-.02 10.54 1.53 2.98 1.55 4.75 4.24 5.32 8.08a8.2 8.2 0 0 1-2.51 7.59c-.56.6-1.2 1.1-1.9 1.51q2.865.54 5.28 2.88a12.5 12.5 0 0 1 3.03 6.56c.61 4.12-.34 7.33-2.87 9.64-2.5 2.3-5.92 3.73-10.28 4.3zm18.96-35.74-11.84 1.54.94 6.3 11.83-1.55c2.74-.36 3.96-1.59 3.64-3.68-.3-2.1-1.83-2.97-4.57-2.61m2.52 15.76-12.02 1.57 1.1 7.36 12.01-1.57c3.33-.44 4.82-1.88 4.45-4.33-.36-2.45-2.2-3.47-5.54-3.03m39.33-.78c1.77 1.55 4.08 2.14 6.94 1.76 2.85-.37 4.9-1.52 6.15-3.46s1.66-4.35 1.23-7.24l-3.35-22.61 12.08-1.58 3.47 23.38c.92 6.22-.3 11.32-3.68 15.3q-5.055 6-14.28 7.2c-6.38.83-11.76-.25-16.12-3.23-4.33-3.02-6.95-7.62-7.87-13.8l-3.47-23.38 12.26-1.6 3.35 22.62c.43 2.88 1.53 5.1 3.3 6.64Zm49.33-36.56 12.21 22.25 5.28-24.53 16.9-2.2 6.25 42.14-11.9 1.55-4.27-28.79-6.26 30.16-8.1 1.06-14.58-27.2 4.23 28.55-11.18 1.46-6.25-42.14 17.67-2.3Zm49.58 36.49-6.24-42.14 25.94-3.38c4.88-.64 8.88.05 12 2.06 3.18 2 5.11 5.4 5.82 10.2.71 4.78-.16 8.54-2.63 11.29-2.42 2.73-6.07 4.42-10.95 5.05l-13.8 1.8 2 13.54zm19.76-34.88-12.32 1.6 1.15 7.72 12.31-1.6c3.14-.42 4.51-1.9 4.13-4.48-.38-2.57-2.14-3.65-5.27-3.24m26.7 14.24-4.13-27.84 11.67-1.52 4.12 27.84zm1.35 14.4-1.7-11.4 13.22-1.71 1.69 11.4z"/><path fill="#1F1E1E" d="m119.62 216.61-3.96.52a4.08 4.08 0 0 0 4.55 3.44zm-6.24-42.14-.59-3.95a3.92 3.92 0 0 0-3.38 4.47zm36.71-1.88-1.83 3.52h.02zm2.8 15.66-2.78-2.91-.17.17 2.96 2.75Zm-1.89 1.52-2.08-3.44a3.92 3.92 0 0 0-1.86 4.12 4.09 4.09 0 0 0 3.27 3.25zm5.28 2.88 3-2.6a4 4 0 0 0-.22-.23zm.16 16.2-2.74-2.97-.02.02zm-29.7-26.44-.58-3.96a3.92 3.92 0 0 0-3.38 4.48zm.94 6.3-3.97.5a4.08 4.08 0 0 0 4.55 3.45l-.58-3.96Zm1.4 9.49-.58-3.96a3.92 3.92 0 0 0-3.38 4.47zm1.1 7.36-3.97.51a4.09 4.09 0 0 0 4.55 3.44l-.59-3.95Zm-10.56 11.05 3.97-.51-6.25-42.14-3.96.51-3.97.52 6.25 42.14zm-6.24-42.14.58 3.96 26.18-3.41-.59-3.96-.58-3.96-26.18 3.42zm26.17-3.41.6 3.96c3.46-.46 6.08.02 8.1 1.09l1.84-3.52 1.83-3.52c-3.85-2.03-8.25-2.58-12.95-1.97zm10.54 1.53-1.8 3.53c1.6.84 2.74 2.27 3.16 5.06l3.96-.51 3.97-.52c-.72-4.88-3.13-8.84-7.48-11.1l-1.8 3.54Zm5.32 8.08-3.96.51c.27 1.84-.19 3.07-1.34 4.16l2.79 2.91 2.79 2.92a12.1 12.1 0 0 0 3.69-11.02zm-2.51 7.59-2.96-2.75c-.3.32-.64.6-1.02.82l2.08 3.44 2.08 3.45c1.03-.6 1.96-1.35 2.77-2.22l-2.95-2.75Zm-1.9 1.51-.67 3.92c1 .2 2.05.7 3.17 1.8l2.78-2.84 2.78-2.83a14.3 14.3 0 0 0-7.39-3.97zm5.28 2.88-3 2.6a8.47 8.47 0 0 1 2.07 4.48l3.96-.51 3.97-.52a16.56 16.56 0 0 0-4-8.64l-3 2.6Zm3.03 6.56-3.96.52c.46 3.12-.29 4.91-1.65 6.15l2.74 2.97 2.73 2.96c3.7-3.37 4.87-8 4.11-13.11l-3.97.52Zm-2.87 9.64-2.76-2.95c-1.74 1.61-4.33 2.8-8.1 3.3l.58 3.95.58 3.96c4.95-.65 9.21-2.33 12.45-5.32zm-10.28 4.3-.59-3.96-26.53 3.47.58 3.95.59 3.96 26.53-3.46zm-7.58-32.28-.58-3.96-11.84 1.54.58 3.96.59 3.96 11.84-1.55zm-11.84 1.54-3.96.52.93 6.29 3.97-.52 3.96-.52-.93-6.29zm.94 6.3.58 3.95 11.84-1.55-.59-3.95-.58-3.96-11.84 1.54.58 3.96Zm11.83-1.55.6 3.95c1.76-.23 3.76-.81 5.25-2.32a6.68 6.68 0 0 0 1.76-5.83l-3.97.52-3.96.51c.01.1-.02 0 .04-.2a1.45 1.45 0 0 1 .37-.64c.15-.16.23-.17.13-.13-.11.04-.36.12-.8.18zm3.64-3.68 3.97-.52a6.93 6.93 0 0 0-3.4-5.16 9.1 9.1 0 0 0-5.72-.9l.58 3.97.59 3.95c.44-.06.7-.04.82-.03.11.01.02.02-.16-.09a1.5 1.5 0 0 1-.54-.52c-.12-.19-.12-.29-.1-.19zm-2.05 13.15-.59-3.96-12.01 1.57.58 3.96.59 3.95 12.02-1.56zm-12.02 1.57-3.96.52 1.09 7.35 3.96-.51 3.97-.52-1.1-7.36zm1.1 7.36.58 3.95 12.02-1.56-.59-3.96-.59-3.96-12.01 1.57.58 3.96Zm12.01-1.57.59 3.96c2.04-.27 4.23-.92 5.85-2.5a7.1 7.1 0 0 0 1.98-6.31l-3.97.52-3.96.52c.02.16-.01.13.03-.03.06-.18.16-.34.27-.45.08-.08.07-.03-.15.06-.23.09-.62.2-1.23.27l.6 3.96Zm4.45-4.33 3.97-.52a7.36 7.36 0 0 0-3.74-5.57c-2.02-1.1-4.32-1.16-6.36-.9l.6 3.96.58 3.96c.6-.08 1-.08 1.25-.05s.27.07.16.01c-.13-.07-.28-.2-.38-.36-.09-.14-.07-.19-.04-.01zm33.8-3.8-2.63 2.97 2.62-2.98Zm13.08-1.71 3.39 2.2zm-2.12-29.85-.58-3.96a3.92 3.92 0 0 0-3.38 4.47zm12.08-1.58 3.97-.52a4.09 4.09 0 0 0-4.56-3.44zm-.2 38.69 3.08 2.6-3.09-2.6Zm-30.41 3.96-2.27 3.26.04.02zm-11.34-37.18-.58-3.95a3.92 3.92 0 0 0-3.38 4.47l3.97-.52Zm12.26-1.6 3.97-.51a4.08 4.08 0 0 0-4.55-3.44zm6.64 29.26-2.62 2.98c2.86 2.5 6.43 3.22 10.14 2.74l-.58-3.96-.6-3.95c-2 .26-3.04-.19-3.72-.78zm6.94 1.76.58 3.96c3.71-.48 6.94-2.1 8.96-5.23l-3.39-2.2-3.38-2.19c-.48.75-1.36 1.45-3.36 1.7zm6.15-3.46 3.39 2.2c1.88-2.93 2.34-6.37 1.81-9.96l-3.97.52-3.96.52c.32 2.19-.04 3.57-.65 4.52zm1.23-7.24 3.97-.52-3.35-22.61-3.97.52-3.96.51 3.35 22.62zm-3.35-22.61.59 3.95 12.08-1.57-.59-3.96-.59-3.96-12.07 1.58zm12.08-1.58-3.97.52 3.47 23.38 3.97-.52 3.96-.51-3.46-23.39zm3.47 23.38-3.97.52c.79 5.33-.29 9.22-2.8 12.19l3.1 2.6 3.08 2.6c4.23-5.02 5.6-11.32 4.55-18.42zm-3.68 15.3-3.09-2.6c-2.63 3.12-6.42 5.14-11.77 5.84l.58 3.95.59 3.96c6.94-.9 12.67-3.68 16.78-8.55zM189 208.6l-.58-3.96c-5.64.73-9.95-.25-13.31-2.55l-2.23 3.28-2.23 3.28c5.37 3.67 11.8 4.83 18.94 3.9l-.59-3.96Zm-16.12-3.23 2.26-3.25c-3.23-2.26-5.38-5.76-6.16-11.06l-3.97.52-3.97.51c1.05 7.05 4.15 12.75 9.57 16.54zm-7.87-13.8 3.97-.51-3.47-23.38-3.97.51-3.96.52 3.47 23.38 3.96-.51Zm-3.47-23.38.6 3.96 12.25-1.6-.59-3.96-.58-3.95-12.26 1.6.59 3.95Zm12.26-1.6-3.97.52 3.36 22.61 3.96-.51 3.97-.52-3.35-22.61zm3.35 22.62-3.96.51c.53 3.6 1.97 6.78 4.63 9.11l2.62-2.98 2.62-2.97c-.86-.76-1.62-2-1.94-4.2zm52.62-29.92 3.51-1.86a4.09 4.09 0 0 0-4.1-2.1l.6 3.96Zm12.21 22.25-3.5 1.87a4.09 4.09 0 0 0 4.09 2.08 3.91 3.91 0 0 0 3.33-3.06l-3.92-.9Zm5.28-24.53-.58-3.95a3.91 3.91 0 0 0-3.34 3.05zm16.9-2.2 3.97-.52a4.08 4.08 0 0 0-4.56-3.44zm6.25 42.14.58 3.95a3.92 3.92 0 0 0 3.38-4.47zm-11.9 1.55-3.97.52a4.09 4.09 0 0 0 4.55 3.44zm-4.27-28.79 3.97-.51a4.09 4.09 0 0 0-3.86-3.47 3.92 3.92 0 0 0-4.04 3.11zm-6.26 30.16.58 3.96c1.67-.22 3-1.45 3.34-3.09zm-8.1 1.06-3.53 1.83a4.09 4.09 0 0 0 4.12 2.13zm-14.58-27.2 3.53-1.83a4.08 4.08 0 0 0-4.8-1.98 3.92 3.92 0 0 0-2.7 4.33zm4.23 28.55.59 3.96a3.92 3.92 0 0 0 3.38-4.48zm-11.18 1.46-3.97.51a4.08 4.08 0 0 0 4.55 3.44zm-6.25-42.14-.59-3.96a3.92 3.92 0 0 0-3.38 4.48zm17.67-2.3-3.51 1.86 12.21 22.25 3.51-1.87 3.51-1.87-12.2-22.24-3.52 1.86Zm12.21 22.24 3.92.9 5.28-24.53-3.92-.9-3.92-.9-5.28 24.53zm5.28-24.53.59 3.96 16.9-2.2-.59-3.96-.59-3.96-16.9 2.2.6 3.96Zm16.9-2.2-3.97.51 6.25 42.14 3.97-.51 3.96-.52-6.24-42.14zm6.25 42.14-.59-3.96-11.9 1.55.59 3.96.58 3.96 11.9-1.56zm-11.9 1.55 3.96-.52-4.26-28.78-3.97.51-3.97.52 4.27 28.79zm-4.27-28.79-3.93-.87-6.26 30.16 3.93.87 3.92.87 6.27-30.16zm-6.26 30.16-.59-3.95-8.1 1.05.6 3.96.58 3.95 8.1-1.05-.6-3.96Zm-8.1 1.06 3.53-1.83-14.58-27.2-3.53 1.83-3.53 1.83 14.58 27.2zm-14.58-27.2-3.97.52 4.24 28.55 3.96-.52 3.97-.52-4.23-28.55zm4.23 28.55-.58-3.96-11.19 1.46.59 3.96.58 3.95 11.19-1.45zm-11.18 1.46 3.96-.52-6.24-42.14-3.97.52-3.97.52 6.25 42.13zm-6.25-42.14.59 3.96 17.67-2.31-.59-3.96-.58-3.95-17.68 2.3.6 3.96Zm67.25 34.18-3.96.52a4.09 4.09 0 0 0 4.55 3.44zm-6.24-42.14-.59-3.96a3.92 3.92 0 0 0-3.38 4.48zm37.95-1.32-2.14 3.34.03.02 2.1-3.36Zm3.18 21.49-3-2.7-.02.03zm-24.75 6.85-.6-3.95a3.92 3.92 0 0 0-3.37 4.47zm2 13.54.59 3.95a3.92 3.92 0 0 0 3.38-4.47zm-4.7-31.7-.58-3.95a3.92 3.92 0 0 0-3.38 4.47zm1.15 7.72-3.97.52a4.09 4.09 0 0 0 4.55 3.44zm-8.59 25.56 3.97-.52-6.25-42.14-3.96.52-3.97.52 6.25 42.14zm-6.24-42.14.58 3.96 25.94-3.39-.58-3.95-.59-3.96-25.94 3.38zm25.94-3.38.58 3.95c4.26-.55 7.21.11 9.3 1.45l2.13-3.34 2.13-3.34c-4.17-2.69-9.22-3.4-14.73-2.68zm12 2.06-2.1 3.36c1.88 1.19 3.37 3.35 3.96 7.35l3.97-.52 3.96-.51c-.82-5.58-3.21-10.21-7.67-13.04l-2.11 3.36Zm5.82 10.2-3.96.5c.6 4-.21 6.47-1.67 8.1l3 2.69 3.01 2.68c3.47-3.85 4.42-8.92 3.6-14.5l-3.97.52Zm-2.63 11.29-3.02-2.67c-1.62 1.82-4.27 3.21-8.52 3.77l.59 3.95.59 3.96c5.5-.72 10.15-2.7 13.39-6.35zm-10.95 5.05-.59-3.95-13.8 1.8.59 3.95.58 3.96 13.8-1.8zm-13.8 1.8-3.97.52 2 13.53 3.97-.51 3.97-.52-2-13.53zm2 13.54-.59-3.96-12.13 1.58.58 3.96.59 3.96 12.14-1.59zm7.62-33.3-.59-3.96-12.31 1.6.58 3.96.59 3.96 12.31-1.6zm-12.32 1.6-3.96.52 1.14 7.72 3.97-.52 3.96-.52-1.14-7.71zm1.15 7.72.58 3.96 12.32-1.61-.59-3.96-.58-3.95-12.32 1.6zm12.31-1.6.59 3.95c2-.26 4.2-.95 5.77-2.66a7.4 7.4 0 0 0 1.74-6.29l-3.97.52-3.97.52c.04.25 0 .3.03.2a.95.95 0 0 1 .22-.4c.1-.11.15-.1 0-.04-.16.07-.47.17-1 .24l.6 3.95Zm4.13-4.48 3.97-.52a7.68 7.68 0 0 0-3.5-5.6c-2.01-1.24-4.32-1.34-6.33-1.08l.59 3.96.58 3.95c.53-.06.86-.05 1.03-.03.16.03.12.05-.01-.03a1.04 1.04 0 0 1-.33-.33c-.05-.09 0-.05.03.2zm21.43 11-3.97.52a4.09 4.09 0 0 0 4.56 3.44zm-4.13-27.84-.58-3.95a3.92 3.92 0 0 0-3.38 4.47l3.97-.52Zm11.67-1.52 3.96-.51a4.08 4.08 0 0 0-4.55-3.44zm4.12 27.84.59 3.96a3.92 3.92 0 0 0 3.38-4.48zm-10.31 15.92-3.97.52a4.09 4.09 0 0 0 4.55 3.44zm-1.7-11.4-.58-3.95a3.92 3.92 0 0 0-3.38 4.48l3.97-.52Zm13.22-1.71 3.96-.52a4.09 4.09 0 0 0-4.55-3.44zm1.69 11.4.58 3.95a3.92 3.92 0 0 0 3.38-4.47l-3.96.51Zm-14.56-12.69 3.97-.52-4.13-27.83-3.96.51-3.97.52 4.12 27.84zm-4.13-27.84.6 3.96 11.65-1.52-.58-3.96-.6-3.95-11.65 1.52.59 3.95Zm11.67-1.52-3.97.52 4.13 27.84 3.96-.52 3.97-.52-4.13-27.83zm4.12 27.84-.58-3.96-11.67 1.52.6 3.96.58 3.96 11.66-1.52zm-10.31 15.92 3.96-.51-1.69-11.4-3.96.52-3.97.52 1.7 11.4zm-1.7-11.4.6 3.97 13.2-1.73-.58-3.95-.59-3.96-13.2 1.72.58 3.96Zm13.22-1.71-3.97.51 1.69 11.4 3.97-.52 3.96-.51-1.69-11.4zm1.69 11.4-.6-3.97-13.2 1.73.59 3.95.58 3.96 13.21-1.72-.58-3.96Z" mask="url(#b)"/></g><defs><clipPath id="a"><path fill="#fff" d="M0 0h452v413H0z"/></clipPath></defs></svg>