<svg xmlns="http://www.w3.org/2000/svg" width="15" height="15" fill="none"><path stroke="#AAA" stroke-linecap="round" stroke-linejoin="round" d="M3.75 6.25V5c0-2.069.625-3.75 3.75-3.75S11.25 2.931 11.25 5v1.25M7.5 11.563a1.563 1.563 0 1 0 0-3.126 1.563 1.563 0 0 0 0 3.126"/><path stroke="#AAA" stroke-linecap="round" stroke-linejoin="round" d="M10.625 13.75h-6.25c-2.5 0-3.125-.625-3.125-3.125v-1.25c0-2.5.625-3.125 3.125-3.125h6.25c2.5 0 3.125.625 3.125 3.125v1.25c0 2.5-.625 3.125-3.125 3.125"/></svg>