<svg xmlns="http://www.w3.org/2000/svg" width="22" height="22" fill="none"><path fill="#AAA" d="M11.004 14.882c1.07 0 2.179.267 3.045.844.79.526 1.275 1.29 1.275 2.14s-.486 1.611-1.275 2.138c-.87.582-1.977.852-3.049.852s-2.18-.27-3.05-.851v-.001c-.788-.527-1.274-1.289-1.274-2.139s.486-1.613 1.275-2.14h.002c.87-.576 1.98-.843 3.05-.843m-.086-6.889a3.053 3.053 0 0 1 3.053 3.053v.005c-.012 1.644-1.307 2.999-2.95 3.047a1 1 0 0 1-.107-.008q.006.001.026-.001h-.052q.015.001.022 0-.054.009-.11.009a3.047 3.047 0 0 1-2.935-3.052 3.047 3.047 0 0 1 3.053-3.053m-8.493.875c1.155-.766 2.745-.999 4.138-.755a.688.688 0 0 1-.237 1.355c-1.118-.196-2.334.012-3.14.547-.502.335-.662.708-.663.994 0 .286.16.66.664.996.797.533 1.995.742 3.116.554a.688.688 0 0 1 .228 1.355c-1.39.234-2.96.001-4.107-.766-.79-.526-1.276-1.289-1.276-2.14 0-.85.486-1.613 1.276-2.139m12.985-.755c1.307-.228 2.785-.038 3.916.618l.222.137v.001c.79.526 1.276 1.29 1.276 2.14s-.486 1.613-1.275 2.14l-.001-.001c-1.147.767-2.716 1-4.106.766a.687.687 0 1 1 .228-1.355c1.12.188 2.319-.02 3.115-.554h.001c.503-.335.663-.71.663-.996s-.16-.66-.662-.994l-.155-.097c-.802-.463-1.937-.634-2.986-.45a.687.687 0 1 1-.236-1.355M5.556 1.146a3.05 3.05 0 0 1 3.052 3.052A3.047 3.047 0 0 1 5.672 7.25a1 1 0 0 1-.11-.008h.024-.052.024a1 1 0 0 1-.11.008 3.06 3.06 0 0 1-2.945-3.047v-.005l.004-.157a3.053 3.053 0 0 1 3.049-2.895m10.862 0a3.053 3.053 0 0 1 3.053 3.052v.005l-.688-.005.687.005a3.06 3.06 0 0 1-2.945 3.047 1 1 0 0 1-.11-.008h.024-.051.022q-.054.01-.11.008a3.046 3.046 0 0 1-2.935-3.052 3.047 3.047 0 0 1 3.053-3.052M5.56 7.243h-.002.004zm10.853 0h-.003.005zM5.556 2.521c-.93 0-1.678.754-1.678 1.677.009.903.708 1.624 1.584 1.674q.097-.007.195 0a1.67 1.67 0 0 0 1.576-1.674c0-.93-.747-1.677-1.677-1.677m10.862 0c-.931 0-1.678.746-1.678 1.677 0 .901.697 1.624 1.575 1.674q.098-.007.195 0a1.684 1.684 0 0 0 1.586-1.674l-.01-.17a1.68 1.68 0 0 0-1.668-1.507" opacity=".3"/></svg>