<svg width="25" height="25" viewBox="0 0 25 25" fill="none" xmlns="http://www.w3.org/2000/svg">
<path d="M12.6667 11.3226C12.5625 11.3122 12.4375 11.3122 12.3229 11.3226C9.84375 11.2393 7.875 9.20801 7.875 6.70801C7.875 4.15592 9.9375 2.08301 12.5 2.08301C15.0521 2.08301 17.125 4.15592 17.125 6.70801C17.1146 9.20801 15.1458 11.2393 12.6667 11.3226Z" stroke="#FAF9F6" stroke-width="2" stroke-linecap="round" stroke-linejoin="round"/>
<path d="M7.45825 15.167C4.93742 16.8545 4.93742 19.6045 7.45825 21.2816C10.3228 23.1982 15.0208 23.1982 17.8853 21.2816C20.4062 19.5941 20.4062 16.8441 17.8853 15.167C15.0312 13.2607 10.3333 13.2607 7.45825 15.167Z" stroke="#FAF9F6" stroke-width="2" stroke-linecap="round" stroke-linejoin="round"/>
</svg>
