<svg width="16" height="15" viewBox="0 0 16 15" fill="none" xmlns="http://www.w3.org/2000/svg">
<path d="M7.65918 0C11.6129 0.000131671 14.8183 3.20546 14.8184 7.15918C14.8183 8.89406 14.2006 10.4845 13.1738 11.7236C13.2018 11.7441 13.2306 11.7648 13.2559 11.79L15.3008 13.8359C15.5667 14.1021 15.5667 14.5336 15.3008 14.7998C15.0346 15.066 14.6032 15.0658 14.3369 14.7998L12.291 12.7549C12.2656 12.7295 12.2442 12.701 12.2236 12.6729C10.9844 13.6999 9.39429 14.3183 7.65918 14.3184C3.70546 14.3183 0.500132 11.1129 0.5 7.15918C0.500077 3.20542 3.70542 7.66343e-05 7.65918 0ZM7.65918 1.36328C4.45854 1.36336 1.86336 3.95854 1.86328 7.15918C1.86341 10.3598 4.45857 12.954 7.65918 12.9541C10.8597 12.954 13.454 10.3597 13.4541 7.15918C13.454 3.95857 10.8598 1.36341 7.65918 1.36328Z" fill="#AAAAAA"/>
</svg>
