<svg width="7" height="12" viewBox="0 0 7 12" fill="none" xmlns="http://www.w3.org/2000/svg">
<path d="M3.62844 7.66354V7.72353H1.70844V7.39354C1.70844 6.89354 1.79344 6.52353 1.96344 6.28353C2.13344 6.03353 2.44844 5.75854 2.90844 5.45854L3.95844 4.78353C4.29844 4.55353 4.55344 4.33353 4.72344 4.12353C4.89344 3.91353 4.97844 3.64353 4.97844 3.31353C4.97844 2.90353 4.84844 2.58853 4.58844 2.36854C4.33844 2.14853 4.00344 2.03853 3.58344 2.03853C3.14344 2.03853 2.79844 2.17353 2.54844 2.44353C2.29844 2.71354 2.17344 3.06853 2.17344 3.50853V3.94353H0.313438V3.40354C0.313438 2.44353 0.618438 1.70853 1.22844 1.19853C1.83844 0.678534 2.62344 0.418534 3.58344 0.418534C4.58344 0.418534 5.38344 0.658534 5.98344 1.13853C6.59344 1.61853 6.89844 2.34353 6.89844 3.31353C6.89844 3.99353 6.73844 4.54853 6.41844 4.97853C6.09844 5.40853 5.61844 5.82353 4.97844 6.22354L4.06344 6.80854C3.77344 7.01854 3.62844 7.30354 3.62844 7.66354ZM1.52844 11.2485V8.86354H3.80844V11.2485H1.52844Z" fill="#AAAAAA"/>
</svg>
