<svg xmlns="http://www.w3.org/2000/svg" width="440" height="562" fill="none"><path fill="#FF0" d="m210.08 20.02 49.44 132.38 147.06-85-87.8 124.15 178 17.9-173.6 43.2 97.73 244.88-150.79-197.65-107.44 248.26 28.03-242.55-215.08 46.55 155.81-85.71-177.99-17.9 173.6-43.2L22.39 95.05l157.7 63.07 30-138.1Z"/><path fill="#8FFF00" d="m217.67 79.07 35.82 94.21 104.53-61.23-62.1 88.91L422.94 213l-123.63 31.53 70.74 174.25-108.38-140.34-75.59 177.52 18.97-173.11-153.2 34.1 110.77-61.78L35.6 243.13l123.63-31.53-75.1-78.23 112.74 44.32z"/></svg>