<svg xmlns="http://www.w3.org/2000/svg" width="366" height="214" fill="none"><path fill="#1F1E1E" fill-rule="evenodd" d="M77.27 112.88a13 13 0 0 1-1.51 1.69c-.8.84-1.68 1.55-2.68 2.14l-33.95 44.95c1-.59 1.88-1.3 2.67-2.14.57-.54 1.07-1.1 1.51-1.7z" clip-rule="evenodd"/><path fill="#1F1E1E" fill-rule="evenodd" d="M73.08 116.7c2.7.5 5.17 1.86 7.44 4.06a17.63 17.63 0 0 1 4.27 9.24c.7 4.76-.08 8.65-2.34 11.7l-33.96 44.94c2.27-3.04 3.05-6.94 2.35-11.69a17.63 17.63 0 0 0-4.28-9.24 14.34 14.34 0 0 0-7.43-4.06l33.95-44.94Z" clip-rule="evenodd"/><path fill="#1F1E1E" fill-rule="evenodd" d="M82.95 144.18c-.2-.96-1.49-1.27-2.21-.61-3.5 3.24-8.33 5.26-14.48 6.06l-33.25 4.34a4.22 4.22 0 0 1-4.72-3.57l-7.93-53.5a2.63 2.63 0 0 0-5.21.73l7.77 58.98c.11.82.46 1.6 1 2.22L49.22 188c.84.98 2.08 1.52 3.37 1.43 13.46-.92 25.44-4.79 30-6.42a4.01 4.01 0 0 0 2.51-2.76l2.68-9.93c.17-.63.19-1.3.06-1.94l-4.9-24.2Z" clip-rule="evenodd"/><path fill="#1F1E1E" fill-rule="evenodd" d="M61.36 111.03c.64-.83.86-1.89.67-3.19-.44-2.95-2.58-4.18-6.44-3.68l-16.67 2.18-16.54 40.26.7 2.12c3.86-.5 4.56 1.11 5 4.07.19 1.3-.03 2.36-.67 3.18z" clip-rule="evenodd"/><path fill="#1F1E1E" fill-rule="evenodd" d="M66.16 134.3c.75-.96 1-2.19.79-3.67-.51-3.45-3.12-4.88-7.8-4.27l-16.93 2.21-13.5 33.39 4.99 6.89c4.7-.61 10-3.45 10.5 0 .22 1.49 9.2.03 8.45 1zm66.36-10.8c.16-.2.3-.41.44-.63l-33.95 44.95c-.14.22-.29.43-.44.63z" clip-rule="evenodd"/><path fill="#1F1E1E" fill-rule="evenodd" d="M132.97 122.87c1.75-2.73 2.33-6.13 1.73-10.2l-4.72-31.84-33.96 44.95 4.73 31.84q.9 6.105-1.74 10.2l33.95-44.95Z" clip-rule="evenodd"/><path fill="#1F1E1E" fill-rule="evenodd" d="m129.98 80.83 17-2.22 4.89 32.93q1.83 12.345-4.35 20.52l-33.96 44.95c4.12-5.46 5.57-12.3 4.36-20.52l-4.89-32.93-17 2.22z" clip-rule="evenodd"/><path fill="#1F1E1E" fill-rule="evenodd" d="M147.52 132.06c-.27.35-.54.7-.83 1.03l-33.95 44.95c.28-.34.56-.68.82-1.03l33.96-44.94Z" clip-rule="evenodd"/><path fill="#1F1E1E" fill-rule="evenodd" d="M146.7 133.1c-4.75 5.61-11.46 8.98-20.11 10.11-9 1.18-16.57-.34-22.71-4.53-6.1-4.26-9.8-10.74-11.08-19.43l-4.88-32.93-5.39 51.84 2.55 28.93s-.84 5.46 5.26 9.72c6.14 4.2 12.8 3.95 21.8 2.78 26.8-9 20.66-6.7 25.41-12.32l9.14-34.18Z" clip-rule="evenodd"/><path fill="#1F1E1E" fill-rule="evenodd" d="m87.92 86.32 17.26-2.26 4.72 31.85c.6 4.07 2.15 7.19 4.63 9.36 2.49 2.18 5.74 3 9.76 2.48 3.7-.48 6.45-1.9 8.23-4.25l-33.95 44.95c-1.79 2.35-4.53 3.76-8.23 4.25-4.02.52-7.28-.3-9.76-2.48-2.49-2.17-4.03-5.3-4.64-9.36L71.22 129l-17.26 2.25 33.96-44.94Zm113.28 18.79 7.43-34.54-33.95 44.95-7.44 34.54z" clip-rule="evenodd"/><path fill="#1F1E1E" fill-rule="evenodd" d="m208.63 70.57 23.8-3.1 8.8 59.34-40.02 39.1-2.74-53.5-23.8 3.1z" clip-rule="evenodd"/><path fill="#1F1E1E" fill-rule="evenodd" d="M233.44 134.46a4.93 4.93 0 0 0-4.52-7.96 4.91 4.91 0 0 1-5.53-4.15l-3.2-21.72c-.7-4.89-6.95-6.46-10.01-2.52l-24.54 31.61a5.67 5.67 0 0 0-1.14 4.3l4.65 31.7a5.55 5.55 0 0 0 6.24 4.69l8.98-1.19c1.49-.2 2.84-.98 3.77-2.17z" clip-rule="evenodd"/><path fill="#1F1E1E" fill-rule="evenodd" d="m218.46 88.46-8.82 42.47-38.53 35.3 13.4-32.82z" clip-rule="evenodd"/><path fill="#1F1E1E" fill-rule="evenodd" d="M203.75 136.2a3.67 3.67 0 0 0-3.36-5.92 3.67 3.67 0 0 1-3.71-1.87l-15.03-27.53a5.63 5.63 0 0 0-9.4-.67l-26.57 34.22a5.63 5.63 0 0 0-.52 6.15l16.75 30.68a5.56 5.56 0 0 0 5.62 2.83l5.26-.7c1.49-.19 2.85-.97 3.78-2.16z" clip-rule="evenodd"/><path fill="#1F1E1E" fill-rule="evenodd" d="m174.45 88.7 5.96 40.2-33.96 44.95-5.96-40.2z" clip-rule="evenodd"/><path fill="#1F1E1E" fill-rule="evenodd" d="M176.34 141.5a4.64 4.64 0 0 0-4.25-7.48 4.62 4.62 0 0 1-5.2-3.9l-5.91-40.33c-.72-4.89-6.97-6.46-10.02-2.52l-24.55 31.62a5.67 5.67 0 0 0-1.14 4.3l7.34 50a5.55 5.55 0 0 0 6.25 4.7l7.96-1.06c1.5-.2 2.86-.98 3.78-2.17l25.75-33.16Z" clip-rule="evenodd"/><path fill="#1F1E1E" fill-rule="evenodd" d="M159.12 77.03 184 73.78l17.2 31.33-33.96 44.95-17.2-31.33-24.88 3.25zm85.91-11.2 36.53-4.77c6.87-.9 12.5.07 16.91 2.9 4.46 2.83 7.2 7.62 8.2 14.36.9 6.13-.04 11.08-2.83 14.83l-33.95 44.94q4.185-5.625 2.82-14.82c-1-6.75-3.73-11.53-8.2-14.36-4.4-2.83-10.04-3.8-16.9-2.9l-36.54 4.76z" clip-rule="evenodd"/><path fill="#1F1E1E" fill-rule="evenodd" d="M303.84 93.14c-.28.38-.57.73-.88 1.08L269 139.17c.31-.35.6-.7.88-1.08z" clip-rule="evenodd"/><path fill="#1F1E1E" fill-rule="evenodd" d="M302.96 94.22c-3.42 3.86-8.56 6.23-15.43 7.13l-19.44 2.53-32.79 52.98 13.11-2.65c6.88-.9 33.22-10.42 36.63-14.27z" clip-rule="evenodd"/><path fill="#1F1E1E" fill-rule="evenodd" d="m268.1 103.88 2.82 19.06-39.2 41.11 2.42-15.22 33.95-44.95Z" clip-rule="evenodd"/><path fill="#1F1E1E" fill-rule="evenodd" d="M262.97 130.72a5.03 5.03 0 0 0-4.6-8.11 5.01 5.01 0 0 1-5.65-4.24l-5.86-39.95c-.72-4.88-6.97-6.45-10.02-2.51l-24.55 31.61a5.67 5.67 0 0 0-1.14 4.3l7.35 50.02a5.55 5.55 0 0 0 6.24 4.68l9.3-1.23c1.5-.2 2.86-.98 3.78-2.17z" clip-rule="evenodd"/><path fill="#1F1E1E" fill-rule="evenodd" d="m264.3 78.3 1.61 10.87 17.34-2.26c2.39-.31 4.05-1.07 4.99-2.27l-33.96 44.95c-.94 1.2-2.6 1.95-4.98 2.27l-17.34 2.26-1.61-10.87 33.95-44.94Z" clip-rule="evenodd"/><path fill="#1F1E1E" fill-rule="evenodd" d="M288.24 84.64c.8-1.02 1.08-2.36.83-4.03-.54-3.62-3.01-5.14-7.43-4.57l-17.34 2.27-33.95 44.94 17.34-2.26c4.41-.58 6.89.95 7.42 4.57.25 1.67-.03 3-.83 4.03zm25.2-27.74 16.42-2.14 5.81 39.2-33.95 44.95-5.82-39.2-16.42 2.14z" clip-rule="evenodd"/><path fill="#1F1E1E" fill-rule="evenodd" d="m335.67 93.96-16.42 2.14-5.81-39.2-33.96 44.95 5.81 39.2 16.43-2.14z" clip-rule="evenodd"/><path fill="#1F1E1E" fill-rule="evenodd" d="m318.77 100.34 18.6-2.43 2.38 16.05-34.06 40.18-2.28-11.28-18.6 2.43z" clip-rule="evenodd"/><path fill="#1F1E1E" fill-rule="evenodd" d="M343.16 119c4.2-4.09.27-11-5.36-9.42l-11.6 3.25a4.96 4.96 0 0 1-6.28-4.04 5 5 0 0 0-8.6-2.65l-34.48 35.98a5.6 5.6 0 0 0 .34 8.15l7.52 6.45a5.6 5.6 0 0 0 4.38 1.3l14.22-1.89a5.74 5.74 0 0 0 3.24-1.57z" clip-rule="evenodd"/><mask id="a" width="334.11" height="115.36" x="12.83" y="47.16" fill="#000" maskUnits="userSpaceOnUse"><path fill="#fff" d="M12.83 47.16h334.11v115.36H12.83z"/><path d="m28.79 153.8-8.8-59.35 36.87-4.8c5.75-.76 10.7-.04 14.84 2.15 4.2 2.17 6.69 5.97 7.49 11.37.64 4.3-.54 7.85-3.54 10.69-.79.84-1.68 1.55-2.67 2.14 2.69.5 5.17 1.85 7.43 4.05a17.63 17.63 0 0 1 4.27 9.24c.86 5.8-.49 10.32-4.05 13.57-3.5 3.24-8.33 5.26-14.47 6.06l-37.37 4.87Zm26.7-50.35-16.68 2.18 1.32 8.86 16.67-2.18c3.86-.5 5.56-2.23 5.13-5.18-.44-2.96-2.59-4.18-6.44-3.68m3.55 22.2-16.93 2.21 1.54 10.36 16.92-2.2c4.7-.62 6.78-2.65 6.27-6.1-.51-3.46-3.11-4.88-7.8-4.27m55.39-1.09c2.48 2.18 5.74 3 9.76 2.48 4.02-.53 6.91-2.15 8.67-4.88s2.34-6.13 1.73-10.2l-4.72-31.84 17.01-2.22 4.88 32.93c1.3 8.75-.42 15.93-5.17 21.55s-11.45 8.99-20.11 10.12c-9 1.17-16.56-.34-22.7-4.54-6.1-4.26-9.8-10.73-11.09-19.43L87.81 85.6l17.26-2.25 4.72 31.85c.6 4.06 2.15 7.19 4.64 9.36m69.46-51.49 17.2 31.33 7.44-34.54 23.8-3.1 8.79 59.34-16.76 2.18-6-40.53-8.83 42.47-11.4 1.49-20.53-38.3 5.96 40.2-15.75 2.05-8.8-59.34zm69.83 51.39-8.8-59.35 36.53-4.76c6.87-.9 12.51.07 16.92 2.9 4.46 2.83 7.19 7.61 8.19 14.35 1 6.75-.24 12.05-3.7 15.9-3.42 3.86-8.56 6.24-15.44 7.13L268 103.17l2.82 19.06-17.1 2.22Zm27.82-49.13-17.35 2.26 1.62 10.87 17.34-2.26c4.41-.58 6.35-2.68 5.81-6.3-.53-3.62-3-5.15-7.42-4.57m37.6 20.06-5.8-39.2 16.41-2.14 5.81 39.2zm1.9 20.28-2.38-16.04 18.6-2.43 2.38 16.05z"/></mask><path fill="#8FFF00" d="m28.79 153.8-8.8-59.35 36.87-4.8c5.75-.76 10.7-.04 14.84 2.15 4.2 2.17 6.69 5.97 7.49 11.37.64 4.3-.54 7.85-3.54 10.69-.79.84-1.68 1.55-2.67 2.14 2.69.5 5.17 1.85 7.43 4.05a17.63 17.63 0 0 1 4.27 9.24c.86 5.8-.49 10.32-4.05 13.57-3.5 3.24-8.33 5.26-14.47 6.06l-37.37 4.87Zm26.7-50.35-16.68 2.18 1.32 8.86 16.67-2.18c3.86-.5 5.56-2.23 5.13-5.18-.44-2.96-2.59-4.18-6.44-3.68m3.55 22.2-16.93 2.21 1.54 10.36 16.92-2.2c4.7-.62 6.78-2.65 6.27-6.1-.51-3.46-3.11-4.88-7.8-4.27m55.39-1.09c2.48 2.18 5.74 3 9.76 2.48 4.02-.53 6.91-2.15 8.67-4.88s2.34-6.13 1.73-10.2l-4.72-31.84 17.01-2.22 4.88 32.93c1.3 8.75-.42 15.93-5.17 21.55s-11.45 8.99-20.11 10.12c-9 1.17-16.56-.34-22.7-4.54-6.1-4.26-9.8-10.73-11.09-19.43L87.81 85.6l17.26-2.25 4.72 31.85c.6 4.06 2.15 7.19 4.64 9.36m69.46-51.49 17.2 31.33 7.44-34.54 23.8-3.1 8.79 59.34-16.76 2.18-6-40.53-8.83 42.47-11.4 1.49-20.53-38.3 5.96 40.2-15.75 2.05-8.8-59.34zm69.83 51.39-8.8-59.35 36.53-4.76c6.87-.9 12.51.07 16.92 2.9 4.46 2.83 7.19 7.61 8.19 14.35 1 6.75-.24 12.05-3.7 15.9-3.42 3.86-8.56 6.24-15.44 7.13L268 103.17l2.82 19.06-17.1 2.22Zm27.82-49.13-17.35 2.26 1.62 10.87 17.34-2.26c4.41-.58 6.35-2.68 5.81-6.3-.53-3.62-3-5.15-7.42-4.57m37.6 20.06-5.8-39.2 16.41-2.14 5.81 39.2zm1.9 20.28-2.38-16.04 18.6-2.43 2.38 16.05z"/><path fill="#1F1E1E" d="m28.79 153.8-5.59.72a5.75 5.75 0 0 0 6.41 4.85l-.82-5.58Zm-8.8-59.35-.82-5.57a5.52 5.52 0 0 0-4.76 6.3zm51.7-2.65-2.58 4.95.04.02 2.55-4.97Zm3.96 22.06-3.93-4.1-.23.23zM72.98 116l-2.93-4.86a5.52 5.52 0 0 0-2.62 5.81 5.76 5.76 0 0 0 4.6 4.57zm7.43 4.05 4.22-3.66-.3-.32zm.22 22.8-3.85-4.16-.03.02 3.88 4.15Zm-41.81-37.22-.83-5.58a5.52 5.52 0 0 0-4.76 6.3zm1.3 8.86-5.58.73a5.75 5.75 0 0 0 6.41 4.84l-.82-5.57Zm2 13.37-.84-5.57a5.52 5.52 0 0 0-4.76 6.3l5.59-.73Zm1.53 10.36-5.59.73a5.75 5.75 0 0 0 6.41 4.85zM28.79 153.8l5.58-.72-8.8-59.35-5.58.73-5.58.73 8.8 59.34zm-8.8-59.34.83 5.57 36.86-4.8-.82-5.58-.83-5.57-36.86 4.8zm36.87-4.8.82 5.56c4.88-.63 8.58.03 11.43 1.54l2.59-4.95 2.58-4.96c-5.43-2.86-11.62-3.64-18.25-2.77l.83 5.57ZM71.7 91.8l-2.55 4.97c2.27 1.18 3.87 3.2 4.45 7.13l5.59-.73 5.59-.73C83.76 95.57 80.36 90 74.24 86.82zm7.49 11.37-5.59.73c.39 2.59-.25 4.32-1.88 5.85l3.93 4.1 3.92 4.11c4.37-4.13 6.1-9.52 5.2-15.52zm-3.54 10.69-4.16-3.87c-.43.46-.9.84-1.44 1.15l2.93 4.86 2.93 4.85c1.45-.85 2.76-1.9 3.9-3.13zM72.98 116l-.95 5.52c1.42.26 2.9.98 4.47 2.52l3.91-3.99 3.92-3.98a20.1 20.1 0 0 0-10.4-5.6zm7.43 4.05-4.22 3.66a11.9 11.9 0 0 1 2.9 6.31l5.6-.73 5.58-.73a23.34 23.34 0 0 0-5.64-12.17zm4.27 9.24-5.58.73c.65 4.4-.4 6.92-2.32 8.66l3.85 4.18 3.85 4.17c5.21-4.75 6.86-11.27 5.79-18.47zm-4.05 13.57-3.88-4.15c-2.45 2.26-6.1 3.94-11.42 4.64l.83 5.57.82 5.57c6.96-.9 12.97-3.27 17.53-7.49zm-14.47 6.06-.83-5.57-37.37 4.87.83 5.57.82 5.58 37.37-4.88zm-10.67-45.47-.83-5.57L38 100.05l.82 5.58.83 5.57 16.67-2.18-.82-5.57Zm-16.68 2.18-5.58.73 1.31 8.86 5.59-.73 5.58-.73-1.3-8.86zm1.32 8.86.82 5.57 16.68-2.18-.83-5.57-.82-5.57-16.68 2.17zm16.67-2.18.83 5.57c2.48-.32 5.3-1.15 7.4-3.27 2.34-2.37 2.9-5.42 2.48-8.21l-5.58.73-5.59.73c.02.14-.02 0 .06-.3a2.06 2.06 0 0 1 .52-.9c.2-.21.33-.23.18-.17s-.5.17-1.12.25zm5.13-5.18 5.58-.73a9.76 9.76 0 0 0-4.77-7.27c-2.64-1.5-5.6-1.57-8.08-1.25l.83 5.57.82 5.57c.63-.08 1-.06 1.16-.04s.04.03-.23-.12a2.14 2.14 0 0 1-.76-.74c-.16-.27-.16-.4-.14-.26zm-2.9 18.52-.82-5.57-16.93 2.2.83 5.58.83 5.57 16.92-2.2-.82-5.58Zm-16.92 2.21-5.59.73 1.54 10.36 5.59-.73 5.58-.72-1.53-10.37zm1.54 10.36.82 5.58 16.93-2.21-.83-5.57-.82-5.58-16.93 2.21zm16.92-2.2.83 5.57c2.87-.38 5.96-1.29 8.24-3.5 2.56-2.5 3.25-5.78 2.79-8.9l-5.59.73-5.58.73c.03.23-.02.18.05-.04.07-.26.22-.49.37-.63.11-.11.1-.05-.21.07-.33.13-.88.28-1.72.4zm6.27-6.1 5.59-.73a10.37 10.37 0 0 0-5.27-7.85c-2.84-1.55-6.08-1.63-8.95-1.26l.83 5.57.82 5.57c.85-.1 1.42-.1 1.77-.06.34.04.37.1.22.02-.18-.1-.39-.29-.54-.52-.12-.2-.09-.25-.05-.01zm47.59-5.36-3.7 4.2zm18.43-2.4 4.77 3.09-4.77-3.1Zm-2.99-42.04-.82-5.57a5.52 5.52 0 0 0-4.76 6.3zm17.01-2.22 5.59-.73a5.75 5.75 0 0 0-6.41-4.84zm-.3 54.48 4.35 3.66-4.34-3.66Zm-42.8 5.58-3.2 4.59c.02 0 .03.02.05.03l3.14-4.62ZM87.8 85.6l-.8-5.57a5.52 5.52 0 0 0-4.76 6.3l5.58-.73Zm17.26-2.25 5.59-.73a5.75 5.75 0 0 0-6.41-4.84zm9.36 41.21-3.7 4.2c4.03 3.51 9.06 4.53 14.28 3.85l-.82-5.57-.83-5.58c-2.82.37-4.3-.26-5.25-1.1zm9.76 2.48.82 5.57c5.23-.68 9.77-2.95 12.62-7.36l-4.77-3.1-4.77-3.08c-.67 1.04-1.9 2.03-4.73 2.4zm8.67-4.88 4.77 3.09c2.65-4.12 3.3-8.96 2.55-14.02l-5.59.73-5.58.73c.46 3.08-.06 5.04-.92 6.38zm1.73-10.2 5.59-.73-4.72-31.84-5.59.73-5.58.73 4.72 31.84zm-4.72-31.84.83 5.57 17-2.22-.82-5.57-.82-5.57-17.01 2.22zm17.01-2.22-5.58.73 4.88 32.93 5.58-.73 5.59-.73-4.88-32.93zm4.88 32.93-5.58.73c1.1 7.5-.41 12.99-3.94 17.16l4.35 3.66 4.34 3.66c5.97-7.06 7.9-15.94 6.42-25.94zm-5.17 21.55-4.35-3.66c-3.7 4.38-9.05 7.22-16.59 8.2l.83 5.58.83 5.57c9.77-1.27 17.84-5.18 23.62-12.03zm-20.11 10.12-.83-5.57c-7.93 1.03-14-.35-18.74-3.58l-3.14 4.61-3.14 4.62c7.56 5.17 16.63 6.8 26.68 5.5zm-22.7-4.54 3.19-4.58c-4.56-3.18-7.58-8.1-8.69-15.57l-5.59.72-5.58.73c1.47 9.92 5.83 17.95 13.47 23.29zm-11.09-19.43 5.59-.72-4.88-32.93-5.59.72-5.58.73 4.88 32.93zM87.81 85.6l.83 5.58 17.26-2.26-.83-5.57-.82-5.57-17.26 2.25zm17.26-2.25-5.58.73 4.72 31.85 5.58-.73 5.59-.73-4.72-31.85zm4.72 31.85-5.58.73c.75 5.05 2.78 9.54 6.53 12.82l3.69-4.19 3.68-4.2c-1.21-1.06-2.27-2.8-2.73-5.9zm74.1-42.13 4.95-2.63a5.76 5.76 0 0 0-5.77-2.94zm17.2 31.33-4.94 2.63a5.76 5.76 0 0 0 5.77 2.94 5.51 5.51 0 0 0 4.7-4.3zm7.44-34.54-.83-5.57a5.51 5.51 0 0 0-4.7 4.3zm23.8-3.1 5.58-.73a5.75 5.75 0 0 0-6.41-4.85l.82 5.57Zm8.79 59.34.82 5.57a5.52 5.52 0 0 0 4.76-6.3zm-16.76 2.18-5.59.73a5.75 5.75 0 0 0 6.42 4.85zm-6-40.53 5.58-.73a5.76 5.76 0 0 0-5.43-4.89 5.53 5.53 0 0 0-5.69 4.4l5.53 1.22Zm-8.83 42.47.83 5.57a5.51 5.51 0 0 0 4.7-4.34zm-11.4 1.49-4.97 2.58a5.76 5.76 0 0 0 5.8 2.99zM177.6 93.4l4.97-2.59a5.74 5.74 0 0 0-6.75-2.78 5.51 5.51 0 0 0-3.8 6.1l5.58-.74Zm5.96 40.2.82 5.57a5.52 5.52 0 0 0 4.76-6.3zm-15.75 2.05-5.6.73a5.75 5.75 0 0 0 6.42 4.84zM159 76.32l-.83-5.57a5.51 5.51 0 0 0-4.76 6.3zm24.88-3.25-4.94 2.63 17.2 31.33 4.94-2.63 4.95-2.63-17.2-31.33zm17.2 31.33 5.52 1.26 7.44-34.54-5.52-1.26-5.53-1.27-7.43 34.54zm7.44-34.54.82 5.57 23.8-3.1-.83-5.58-.82-5.57-23.8 3.1zm23.8-3.1-5.6.72 8.8 59.35 5.59-.73 5.58-.73-8.8-59.34-5.58.72Zm8.79 59.34-.83-5.57-16.75 2.18.82 5.57.83 5.58 16.75-2.19zm-16.76 2.18 5.59-.72-6.01-40.54-5.59.73-5.58.73 6 40.53 5.6-.73Zm-6-40.53-5.54-1.23L204 129l5.53 1.23 5.53 1.22 8.82-42.47-5.53-1.22Zm-8.83 42.47-.83-5.57-11.4 1.48.83 5.58.83 5.57 11.4-1.49zm-11.4 1.49 4.98-2.59-20.54-38.3-4.97 2.58-4.97 2.58 20.53 38.3zM177.6 93.4l-5.59.72 5.96 40.2 5.59-.72 5.58-.73-5.96-40.2-5.58.72Zm5.96 40.2-.83-5.58-15.75 2.06.83 5.57.82 5.57 15.75-2.05zm-15.75 2.05 5.58-.73-8.8-59.34-5.58.73-5.59.73 8.8 59.34zM159 76.32l.82 5.57 24.89-3.25-.83-5.57-.82-5.57-24.89 3.25zm94.7 48.14-5.58.72a5.75 5.75 0 0 0 6.41 4.85l-.82-5.58Zm-8.79-59.35-.82-5.57a5.52 5.52 0 0 0-4.76 6.3zm53.45-1.86-3.01 4.7.03.03zm4.48 30.26-4.23-3.79-.03.03zM268 103.17l-.83-5.57a5.52 5.52 0 0 0-4.76 6.3zm2.82 19.06.83 5.57a5.52 5.52 0 0 0 4.76-6.3zm-6.62-44.64-.82-5.57a5.52 5.52 0 0 0-4.76 6.3zm1.62 10.87-5.59.73a5.75 5.75 0 0 0 6.41 4.84zm-12.1 36 5.6-.73-8.8-59.35-5.59.73-5.58.73 8.8 59.34 5.58-.73Zm-8.79-59.35.83 5.57 36.53-4.76-.83-5.57-.82-5.58-36.53 4.77zm36.53-4.76.83 5.57c5.99-.78 10.15.15 13.08 2.04l3-4.7 3.01-4.71c-5.88-3.78-12.99-4.79-20.74-3.78zm16.92 2.9-2.98 4.73c2.65 1.68 4.75 4.72 5.58 10.35l5.59-.73 5.58-.72c-1.16-7.86-4.52-14.38-10.8-18.35zm8.19 14.35-5.59.73c.84 5.64-.3 9.1-2.35 11.4l4.23 3.78 4.24 3.78c4.88-5.42 6.22-12.56 5.05-20.41zm-3.7 15.9-4.27-3.75c-2.27 2.57-6 4.53-12 5.31l.84 5.57.82 5.58c7.75-1.02 14.3-3.8 18.86-8.94l-4.26-3.76Zm-15.44 7.13-.82-5.57-19.44 2.54.83 5.57.82 5.57 19.44-2.53-.82-5.58ZM268 103.17l-5.59.73 2.83 19.05 5.58-.72 5.59-.73-2.83-19.06zm2.82 19.06-.82-5.58-17.1 2.23.83 5.58.82 5.57 17.1-2.23zm10.73-46.9-.83-5.57-17.34 2.26.82 5.57.83 5.57 17.35-2.26zm-17.35 2.26-5.58.73 1.61 10.87 5.59-.73 5.58-.73-1.6-10.87zm1.62 10.87.82 5.57 17.35-2.26-.83-5.57-.83-5.58-17.34 2.27zm17.34-2.26.83 5.57c2.83-.37 5.9-1.34 8.12-3.74 2.4-2.6 2.9-5.87 2.45-8.86l-5.59.73-5.58.73c.05.35 0 .41.04.28.01-.06.04-.16.1-.27s.13-.21.2-.29c.15-.16.21-.14 0-.05-.22.1-.66.23-1.4.32zm5.81-6.3 5.59-.73c-.44-2.99-1.87-6.01-4.93-7.9-2.83-1.73-6.08-1.88-8.9-1.51l.82 5.57.82 5.57c.74-.1 1.2-.07 1.44-.04.23.03.18.06 0-.05a1.5 1.5 0 0 1-.47-.47c-.07-.11 0-.06.05.29zm30.18 15.49-5.58.73a5.75 5.75 0 0 0 6.4 4.84zm-5.8-39.2-.83-5.57a5.52 5.52 0 0 0-4.76 6.3l5.58-.73Zm16.41-2.14 5.59-.73a5.75 5.75 0 0 0-6.41-4.85zm5.81 39.2.83 5.57a5.52 5.52 0 0 0 4.76-6.3zm-14.52 22.42-5.59.73a5.75 5.75 0 0 0 6.42 4.85zm-2.38-16.04-.83-5.58a5.52 5.52 0 0 0-4.76 6.3zm18.6-2.43 5.59-.73a5.75 5.75 0 0 0-6.42-4.84zm2.38 16.05.82 5.57a5.52 5.52 0 0 0 4.77-6.3zm-20.5-17.86 5.59-.73-5.81-39.2-5.59.73-5.58.73 5.8 39.2 5.6-.73Zm-5.8-39.2.82 5.57 16.42-2.14-.83-5.57-.82-5.58-16.42 2.15.82 5.57Zm16.41-2.14-5.58.73 5.8 39.2 5.6-.73 5.58-.73-5.81-39.2zm5.81 39.2-.82-5.58-16.42 2.15.82 5.57.83 5.57 16.42-2.14zm-14.52 22.42 5.58-.72-2.37-16.05-5.59.73-5.59.73 2.38 16.04zm-2.38-16.04.83 5.57 18.6-2.43-.83-5.57-.82-5.57-18.6 2.42zm18.6-2.43-5.58.73 2.37 16.05 5.59-.73 5.59-.73-2.38-16.05zm2.38 16.05-.83-5.57-18.6 2.42.83 5.57.82 5.58 18.6-2.43z" mask="url(#a)"/></svg>