<svg width="43" height="43" viewBox="0 0 43 43" fill="none" xmlns="http://www.w3.org/2000/svg">
<rect width="43" height="43" rx="21.5" fill="#EF3124"/>
<path d="M20.5882 4.66361C20.6363 4.67967 20.6505 4.71413 20.68 4.75541C20.7845 4.90172 20.7673 5.05917 20.68 5.21635C20.6305 5.30469 20.5221 5.30187 20.4964 5.39994C20.484 5.4473 20.4955 5.52423 20.4964 5.52982L21.6839 5.76811C21.6839 5.76811 22.551 5.98751 23.0657 6.22904C23.5625 6.46216 23.8338 6.62326 24.263 6.96537C24.6605 7.28229 24.8739 7.4832 25.1839 7.88627C25.4883 8.28216 25.6571 8.52256 25.8284 8.99174C25.93 9.26995 25.9788 9.43359 26.012 9.72807C26.0402 9.97821 26.012 10.3726 26.012 10.3726L26.7493 9.72807C26.7594 9.71935 27.1223 9.406 27.3938 9.26713C27.5659 9.17915 27.6683 9.13819 27.8538 9.08354C28.0295 9.03177 28.1319 9.01262 28.3138 8.99174C28.5638 8.96304 28.7105 8.95305 28.9593 8.99174C29.1058 9.01462 29.3274 9.08354 29.3274 9.08354C29.3371 9.08963 29.5693 9.23727 29.6956 9.3599C29.9366 9.59403 30.1514 10.0867 30.1556 10.0962C30.1556 10.0962 30.2237 10.3755 30.2483 10.5572C30.3015 10.9488 30.2767 11.1755 30.2483 11.5699C30.2276 11.8589 30.2239 12.0245 30.1556 12.3062C30.0831 12.6047 30.0104 12.7648 29.8792 13.0425C29.7554 13.3046 29.693 13.4615 29.511 13.6871C29.3028 13.945 29.1573 14.0805 28.8665 14.2398C28.6968 14.3328 28.5922 14.3697 28.4065 14.4244C28.2307 14.4762 28.1285 14.5028 27.9456 14.5162C27.6587 14.5371 27.2162 14.4261 27.2093 14.4244C27.2101 14.432 27.2346 14.6534 27.2093 14.7925C27.1889 14.9044 27.1561 14.9619 27.1175 15.0689C27.0246 15.3265 26.9838 15.4797 26.8411 15.7134C26.6948 15.9532 26.5827 16.0716 26.3802 16.2662C26.2143 16.4254 26.0975 16.4876 25.9202 16.6343C25.6258 16.878 25.503 17.0687 25.1839 17.2788C24.8209 17.5177 24.1702 17.7388 24.1702 17.7388C24.1702 17.7388 25.738 17.4787 26.7493 17.3706C27.7531 17.2634 29.3274 17.1871 29.3274 17.1871H30.6165C30.6316 17.1869 31.361 17.1775 31.8138 17.2788C32.2245 17.3709 32.8265 17.647 32.8265 17.647C32.8337 17.6339 33.3815 16.634 33.7474 16.5425C34.1156 16.4506 34.4837 16.6343 34.4837 16.6343L34.6683 16.4497C34.6683 16.4497 34.5759 16.4501 34.9437 16.2662C35.312 16.082 36.6019 16.2662 36.6019 16.2662V16.3579H36.8782L36.97 16.4497C36.97 16.4497 37.0404 16.8526 36.97 17.0943C36.9258 17.246 36.79 17.4554 36.7854 17.4624C36.7854 17.4624 37.4649 17.266 37.6146 17.5552C37.697 17.7147 37.6749 17.846 37.6146 18.0152C37.5709 18.1373 37.5114 18.1906 37.43 18.2915C37.3343 18.4102 37.2817 18.4851 37.1536 18.5679C37.0864 18.6114 37.0437 18.6281 36.97 18.6597C36.8655 18.7045 36.6937 18.7525 36.6937 18.7525C36.6891 18.753 36.2958 18.7946 36.0491 18.7525C35.8249 18.7142 35.4964 18.5679 35.4964 18.5679C35.4895 18.5748 35.1807 18.8833 34.9437 19.0279C34.8063 19.1116 34.5755 19.2124 34.5755 19.2124C34.5732 19.2189 34.4308 19.6193 34.2991 19.857C34.1505 20.1252 33.8444 20.4951 33.8392 20.5015V20.7779C33.8403 20.7799 33.9014 20.8885 33.931 20.9624C34.0643 21.296 33.9931 21.5285 33.931 21.8824C33.9053 22.0284 33.8392 22.2515 33.8392 22.2515C33.8351 22.2586 33.7363 22.4307 33.6546 22.5279C33.5894 22.6054 33.5486 22.6463 33.471 22.7115C33.3717 22.7949 33.3116 22.8401 33.1946 22.896C33.0921 22.9451 33.0306 22.9701 32.9183 22.9878C32.8117 23.0047 32.746 23.0162 32.6419 22.9878C32.5169 22.9537 32.4621 22.8897 32.3655 22.8033C32.3278 22.7696 32.3049 22.7515 32.2737 22.7115C32.2245 22.6482 32.1934 22.6071 32.1819 22.5279C32.1659 22.4154 32.2056 22.3424 32.2737 22.2515C32.3042 22.2108 32.3394 22.2023 32.3655 22.1587C32.4209 22.0663 32.3372 21.9864 32.3655 21.8824C32.3867 21.8051 32.4347 21.7755 32.4583 21.6988C32.5006 21.5614 32.484 21.4719 32.4583 21.3306C32.438 21.2187 32.3963 21.1637 32.3655 21.0542C32.3159 20.8777 32.3144 20.7721 32.2737 20.5933C32.2409 20.4489 32.2541 20.3545 32.1819 20.2251C32.0556 19.9987 31.8538 19.9866 31.6292 19.857C31.4203 19.7364 31.2995 19.6725 31.0765 19.5806C30.6975 19.4246 30.4673 19.3765 30.0638 19.3042C29.6377 19.2279 29.3916 19.2296 28.9593 19.2124C28.564 19.1967 27.9456 19.2124 27.9456 19.2124C27.9304 19.2128 27.3178 19.2287 26.9329 19.3042C26.5645 19.3766 26.3638 19.4495 26.012 19.5806C25.6804 19.7042 25.5037 19.7974 25.1839 19.9488C24.8932 20.0864 24.4466 20.3179 24.4466 20.3179L24.3548 20.5933C24.3548 20.5933 24.2749 20.9276 24.263 21.146C24.2453 21.4712 24.3037 21.6535 24.3548 21.9751C24.4301 22.4488 24.4403 22.7323 24.6312 23.1724C24.7464 23.4381 24.8339 23.579 24.9993 23.8169C25.1886 24.0891 25.5521 24.4615 25.5521 24.4615C25.5558 24.4583 26.1449 23.9719 26.5647 23.7242C27.008 23.4626 27.2795 23.3518 27.762 23.1724C28.2527 22.99 28.5447 22.9364 29.0511 22.8033C29.3376 22.7279 29.4929 22.6529 29.7874 22.6197C30.0375 22.5914 30.2367 22.4608 30.4319 22.6197C30.5797 22.7399 30.6154 23.069 30.6165 23.0796C30.6165 23.0796 30.8731 24.9601 30.6165 26.1187C30.5845 26.2631 30.524 26.4857 30.5237 26.4869C30.5237 26.4869 30.7095 26.1175 30.8929 25.9341C31.0738 25.7534 31.4346 25.571 31.4446 25.566C31.4446 25.566 31.9131 25.4635 32.1819 25.566C32.2568 25.5945 32.3003 25.6114 32.3655 25.6578C32.536 25.7789 32.6413 26.1169 32.6419 26.1187C32.6419 26.1187 32.8104 26.1745 32.9183 26.2105C33.0261 26.2464 33.1142 26.2229 33.1946 26.3033C33.2512 26.36 33.2506 26.4151 33.2864 26.4869C33.3943 26.7026 33.5215 26.8019 33.5628 27.0396C33.5874 27.1812 33.6066 27.2708 33.5628 27.4078C33.5233 27.5312 33.4616 27.5848 33.3782 27.6841C33.3128 27.762 33.1946 27.8687 33.1946 27.8687C33.1957 27.8767 33.2096 27.9847 33.1946 28.0523C33.1772 28.1308 33.1573 28.1777 33.1028 28.2369C33.0471 28.2974 32.9222 28.3438 32.9183 28.3453C32.9183 28.3453 32.862 28.4043 32.8147 28.4205C32.7629 28.4381 32.727 28.4349 32.6741 28.4205C32.6197 28.4054 32.6041 28.3622 32.5501 28.3453C32.4815 28.3237 32.4369 28.3363 32.3655 28.3453C32.2528 28.3594 32.191 28.3876 32.0892 28.438C31.8656 28.549 31.6292 28.8814 31.6292 28.8814C31.6227 28.8888 31.3343 29.2211 31.1692 29.4507C30.9244 29.7912 30.8884 30.0524 30.6165 30.3716C30.4847 30.5264 30.4154 30.6241 30.2483 30.7398C30.1161 30.8313 30.0303 30.8692 29.8792 30.9244C29.7402 30.9751 29.6591 31.0162 29.511 31.0162C29.3629 31.0161 29.2776 30.9858 29.1429 30.9244C29.0249 30.8705 28.9658 30.8232 28.8665 30.7398C28.7887 30.6744 28.7483 30.6331 28.6829 30.5552C28.5996 30.4561 28.5451 30.4005 28.4983 30.2798C28.4205 30.0787 28.4554 29.9384 28.4983 29.7271C28.5369 29.5373 28.6517 29.4573 28.6829 29.2662C28.706 29.1244 28.6923 29.0414 28.6829 28.898C28.6686 28.6798 28.6208 28.5618 28.5901 28.3453C28.5396 27.9877 28.5364 27.7836 28.4983 27.4244C28.464 27.1009 28.3888 26.9211 28.4065 26.5962C28.4185 26.3778 28.4983 26.0435 28.4983 26.0435C28.4983 26.0435 28.0598 26.6131 27.762 26.9644C27.4492 27.3335 27.2725 27.5407 26.9329 27.8853C26.2704 28.5576 25.0911 29.4507 25.0911 29.4507C25.0911 29.4507 25.4425 29.7149 25.6438 29.9107C25.8815 30.1418 25.9917 30.2947 26.1966 30.5552C26.4679 30.9002 26.5691 31.1317 26.8411 31.4761C27.078 31.7761 27.4856 32.2134 27.4856 32.2134C27.4974 32.2255 27.9629 32.7054 28.3138 32.9497C28.6137 33.1586 29.1297 33.4034 29.1429 33.4097C29.1429 33.4097 29.6424 33.5585 29.972 33.5943C30.2935 33.6291 30.4781 33.6237 30.8001 33.5943C31.2779 33.5506 31.5429 33.4715 31.9974 33.3179C32.4851 33.153 32.7785 33.0684 33.1946 32.7652C33.5232 32.5257 33.6658 32.3372 33.931 32.0288C34.1653 31.7562 34.306 31.605 34.4837 31.2925C34.6751 30.9559 34.7124 30.7328 34.8519 30.3716C34.9624 30.0851 35.0317 29.9267 35.1282 29.6353C35.3147 29.0724 35.3864 28.7443 35.4964 28.1617C35.537 27.9467 35.5484 27.824 35.5882 27.6089C35.6215 27.4287 35.6395 27.3274 35.681 27.149C35.765 26.7871 35.9534 26.2394 35.9573 26.2281C35.9573 26.2281 36.0611 26.0539 36.1409 25.9517C36.2378 25.8278 36.2822 25.7385 36.4173 25.6578C36.5047 25.6056 36.5616 25.5858 36.6614 25.566C36.7796 25.5425 36.8503 25.5528 36.97 25.566C37.115 25.582 37.3311 25.6553 37.3382 25.6578C37.3382 25.6578 37.5985 25.9152 37.7063 26.1187C37.8452 26.3806 37.8376 26.5635 37.8909 26.855C37.9495 27.1753 37.9827 27.6841 37.9827 27.6841C37.9468 28.1516 37.9269 28.4139 37.8909 28.8814C37.8549 29.3487 37.7111 29.682 37.5228 30.1705C37.2738 30.8158 37.0734 31.1578 36.6937 31.7359C36.2867 32.3554 36.0244 32.6884 35.4964 33.2085C35.0043 33.6932 34.7116 33.9651 34.1155 34.314C33.545 34.6479 33.1938 34.8081 32.5501 34.9585C32.3015 35.0166 32.1596 35.0429 31.9056 35.0679C31.5477 35.1031 31.3434 35.0926 30.9847 35.0679C30.6955 35.048 30.532 35.0342 30.2483 34.9751C29.9922 34.9218 29.852 34.8738 29.6038 34.7915C29.1601 34.6444 28.9148 34.543 28.4983 34.3306C28.1249 34.1402 27.9137 34.0292 27.5774 33.7788C27.088 33.4144 26.8653 33.1407 26.4729 32.6734C26.1584 32.2988 26.0528 32.033 25.7356 31.6607C25.4059 31.2736 25.2192 31.048 24.8147 30.7398C24.4813 30.4857 24.3053 30.2675 23.8938 30.1871C23.1365 30.0394 22.8687 30.84 22.1448 31.108C21.6214 31.3017 21.2873 31.2828 20.764 31.4761C20.3564 31.6267 20.1218 31.7117 19.7503 31.9371C19.4431 32.1235 19.271 32.2385 19.014 32.4898C18.8172 32.6823 18.564 33.0279 18.554 33.0415C18.5755 33.0396 19.3458 32.9697 19.8431 32.9497C20.4898 32.9238 21.5003 32.9497 21.5003 32.9497C21.5049 32.9502 21.6584 32.9668 21.6839 33.0415C21.7157 33.137 21.5046 33.2243 21.5003 33.2261C21.5044 33.2245 21.6856 33.1584 21.7767 33.7788C21.8685 34.4064 21.249 35.3434 20.9476 36.357C20.7983 36.8587 20.6826 37.1328 20.5794 37.646C20.5363 37.8605 20.6096 38.0172 20.4876 38.1988C20.4309 38.2831 20.3832 38.32 20.303 38.3824C20.1761 38.4811 20.0918 38.532 19.9349 38.5669C19.7945 38.5981 19.7104 38.567 19.5667 38.5669C19.4589 38.5669 19.3943 38.5953 19.2903 38.5669C19.2128 38.5458 19.1816 38.5019 19.1058 38.4751C18.9025 38.4035 18.7687 38.4926 18.554 38.4751C18.336 38.4572 18.1999 38.4738 18.0013 38.3824C17.8836 38.3282 17.8044 38.3009 17.7249 38.1988C17.6756 38.1353 17.6767 38.0817 17.6331 38.0142C17.5508 37.887 17.3593 37.7398 17.3567 37.7378C17.3548 37.7351 17.2813 37.6317 17.264 37.5542C17.2484 37.4841 17.2319 37.4339 17.264 37.3697C17.2867 37.3242 17.3208 37.3138 17.3567 37.2779C17.4276 37.207 17.5372 37.0964 17.5403 37.0933L17.7249 36.9097L18.1849 36.8169L18.2776 36.6333C18.2776 36.6333 18.4213 36.2284 18.554 35.9888C18.7039 35.7183 18.8464 35.6041 19.014 35.3443C19.1276 35.168 19.3323 35.0888 19.2903 34.8833C19.2748 34.8076 19.2039 34.7072 19.1985 34.6997C19.1985 34.6997 19.1453 34.639 19.1058 34.607C18.7791 34.3424 18.4926 34.8434 18.0931 34.9751C17.7365 35.0927 17.5459 35.2162 17.1722 35.2515C16.9933 35.2684 16.8865 35.295 16.7122 35.2515C16.5563 35.2125 16.4614 35.1775 16.344 35.0679C16.2494 34.9794 16.223 34.9045 16.1595 34.7915C15.9754 34.4643 15.9364 34.2423 15.8831 33.8706C15.832 33.5147 15.8831 33.3094 15.8831 32.9497C15.8831 32.5543 15.8632 32.332 15.8831 31.9371C15.9123 31.3579 15.9216 31.0246 16.0677 30.4634C16.1939 29.9788 16.461 29.7625 16.5276 29.2662C16.5659 28.9812 16.5412 28.8171 16.5276 28.5298C16.4896 27.7268 16.2514 27.303 16.1595 26.5044C16.0526 25.5749 16.0025 25.0433 16.0677 24.1099C16.1056 23.5672 16.1525 23.2639 16.2513 22.729C16.3375 22.2624 16.5236 21.5474 16.5276 21.5318C16.5166 21.5335 15.9645 21.6204 15.6067 21.6236C15.2097 21.6271 14.9867 21.5914 14.594 21.5318C13.8955 21.4258 13.5143 21.2942 12.844 21.0708C12.3693 20.9127 12.1029 20.8189 11.6478 20.6109C11.1692 20.3921 10.4631 19.9738 10.4505 19.9663C10.4505 19.9663 9.80009 19.3219 9.34502 18.9537C8.96479 18.646 8.33232 18.2163 8.33232 18.2163L7.77959 17.94C7.76635 17.9424 7.38419 18.014 7.13506 18.0328C6.84845 18.0544 6.68453 18.0644 6.39873 18.0328C6.06773 17.9961 5.86437 17.9866 5.56963 17.8316C5.41407 17.7498 5.31558 17.7056 5.20146 17.5718C4.98661 17.3198 5.0296 17.0747 5.01787 16.7437C5.00756 16.454 5.10967 16.0064 5.10967 16.0064C5.10657 15.9999 5.00412 15.7836 5.01787 15.6382C5.03302 15.4782 5.11741 15.407 5.20146 15.2701C5.32145 15.0745 5.56781 14.8111 5.56963 14.8091C5.57006 14.7974 5.58222 14.5099 5.6624 14.3492C5.78773 14.0979 5.95609 13.9986 6.21416 13.8882C6.44794 13.7882 6.85967 13.7964 6.85967 13.7964C6.85803 13.7906 6.65663 13.0699 6.6751 12.5992C6.68506 12.3453 6.69008 12.1969 6.76689 11.9546C6.83972 11.7249 6.88268 11.5825 7.04326 11.4029C7.16307 11.269 7.25552 11.2156 7.41143 11.1265C7.48124 11.0866 7.52209 11.0654 7.596 11.0337C7.70036 10.989 7.76298 10.9727 7.87236 10.9419C8.04865 10.8923 8.14937 10.8415 8.33232 10.8501C8.48032 10.8572 8.59849 10.8346 8.70049 10.9419C8.75583 11.0003 8.77582 11.048 8.79326 11.1265C8.80871 11.1964 8.7933 11.2385 8.79326 11.3101C8.79326 11.4538 8.82429 11.5381 8.79326 11.6783C8.75838 11.8353 8.66891 11.8983 8.60869 12.0474C8.48599 12.3515 8.42541 12.8644 8.42412 12.8755V13.2437L8.51689 13.6128L8.79326 14.2574C8.79861 14.2789 9.01102 15.1318 9.25322 15.6382C9.53003 16.217 10.1611 17.0029 10.1741 17.0191C10.1741 17.0191 10.5415 17.4931 10.8187 17.7564C11.1159 18.0388 11.6478 18.4009 11.6478 18.4009C11.662 18.411 12.191 18.7848 12.5687 18.9537C13.0783 19.1814 13.9495 19.3218 13.9495 19.3218C13.9495 19.3218 15.071 19.1971 15.7913 19.1372C16.2207 19.1015 17.1229 18.8404 17.3782 18.7652C17.4281 18.5818 17.4453 18.0834 16.3421 17.6421C16.106 17.5477 15.8176 17.5112 15.6058 17.3706C15.3283 17.1865 14.9612 16.9966 14.9612 16.9966C14.9567 16.9957 14.4993 16.9027 14.1341 16.4449C13.9099 16.1638 13.9482 16.1684 13.6722 15.8003C13.5501 15.6376 13.4867 15.5012 13.3958 15.3394C13.2539 15.0867 13.3158 14.8397 13.1204 14.6255C12.7735 14.2453 12.3603 14.3458 11.9241 14.0728C11.491 13.8015 11.246 13.6292 10.9104 13.2437C10.6554 12.9506 10.5212 12.7685 10.3587 12.4156C10.1873 12.0432 10.0758 11.8126 10.0823 11.4029C10.0858 11.1842 10.1217 11.0624 10.1741 10.8501C10.2286 10.6293 10.2493 10.4968 10.3587 10.2974C10.445 10.14 10.5171 10.0653 10.6341 9.92924C10.7667 9.77498 10.8431 9.68656 11.0032 9.56107C11.1682 9.4318 11.2732 9.37312 11.4632 9.28471C11.6694 9.18875 12.0159 9.10014 12.0159 9.10014C12.0234 9.09978 12.299 9.08698 12.4759 9.10014C12.694 9.11642 12.8162 9.14051 13.0286 9.19291C13.2494 9.24739 13.3711 9.28992 13.5813 9.3765C13.8044 9.46837 14.1341 9.65287 14.1341 9.65287L14.2259 9.56107C14.2259 9.56107 14.3046 9.10114 14.4095 8.82377C14.5392 8.48069 14.8644 8.00447 14.8704 7.99564C14.8704 7.99564 15.2762 7.44627 15.6067 7.16654C15.742 7.05213 15.9682 6.89482 15.9749 6.89018L16.4358 6.61381V6.52201C16.4358 6.52201 16.2707 6.45406 16.1595 6.43021C15.9487 6.38505 15.6074 6.50483 15.6067 6.43021C15.6067 6.35513 15.6067 6.33744 15.6067 6.33744C15.6231 6.28933 15.6995 6.24564 15.6995 6.24564L15.9749 6.15385C15.9749 6.15385 16.085 6.09241 16.1595 6.06205C16.2968 6.00612 16.3825 5.99917 16.5276 5.96928C16.9114 5.89024 17.5239 5.87781 17.5403 5.87748C17.5313 5.87343 17.3079 5.77289 17.1722 5.69291C17.0605 5.6273 16.9213 5.63624 16.8958 5.50932C16.8891 5.47593 16.8951 5.42305 16.8958 5.41752C16.8958 5.41752 17.1201 5.36071 17.264 5.32475C17.4078 5.28879 17.4848 5.23295 17.6331 5.23295C17.7811 5.23303 17.8592 5.28261 18.0013 5.32475C18.1103 5.3571 18.2776 5.41752 18.2776 5.41752C18.2776 5.41752 18.2248 5.30276 18.1849 5.23295C18.0957 5.07703 17.9309 5.04304 17.9095 4.86479C17.9044 4.82248 17.9095 4.75541 17.9095 4.75541C17.9272 4.7553 18.4368 4.75354 18.7376 4.86479C18.8848 4.91922 19.0956 5.04242 19.1058 5.04838L19.4739 5.41752L19.6673 5.12357C19.6707 5.12023 20.1279 4.67963 20.4964 4.66361C20.5322 4.66203 20.5541 4.65228 20.5882 4.66361ZM22.7093 14.481C22.6393 14.4115 22.5252 14.4122 22.4554 14.482C22.3859 14.5518 22.386 14.665 22.4554 14.7349L22.5716 14.8511C22.5691 14.8536 22.5652 14.8553 22.5628 14.8579V14.8589C22.5622 14.8597 22.5611 14.8615 22.5599 14.8628L22.4964 14.9312C22.4524 14.9786 22.388 15.047 22.3079 15.1285C22.147 15.2921 21.9226 15.5103 21.6683 15.7261C21.4132 15.9426 21.1316 16.1542 20.8567 16.3091C20.5778 16.4663 20.3257 16.5529 20.1243 16.5474C19.6968 16.5356 19.3588 16.3881 19.1272 16.2427C19.0118 16.1702 18.9233 16.0982 18.8646 16.0454C18.8356 16.0194 18.8131 15.9983 18.7991 15.9839C18.7924 15.977 18.7865 15.9706 18.7835 15.9673C18.7824 15.9662 18.7811 15.9649 18.7806 15.9644L18.6458 16.0826C18.5272 16.1858 18.5127 16.1982 18.511 16.1997V16.2007H18.512C18.5125 16.2014 18.5133 16.2029 18.514 16.2037C18.5154 16.2053 18.5175 16.208 18.5198 16.2105C18.5251 16.2162 18.533 16.2244 18.5423 16.2339C18.5613 16.2534 18.5898 16.2802 18.6253 16.3121C18.6967 16.3761 18.8013 16.4613 18.9368 16.5464C19.2082 16.7168 19.6079 16.8918 20.1146 16.9058C20.4135 16.9139 20.7345 16.7886 21.0325 16.6206C21.3347 16.4502 21.6356 16.2227 21.8997 15.9986C22.1643 15.774 22.3969 15.549 22.5628 15.3804C22.6457 15.2961 22.713 15.225 22.7591 15.1753C22.7818 15.1509 22.7996 15.1312 22.8118 15.1177C22.8167 15.1123 22.8213 15.1075 22.8245 15.104L22.9388 15.2183C23.0086 15.288 23.1227 15.2879 23.1927 15.2183C23.2447 15.1659 23.2588 15.0884 23.2327 15.024L23.1927 14.9644L22.7093 14.481ZM18.7806 15.9644C18.7156 15.8902 18.6031 15.8823 18.5286 15.9468C18.4542 16.0118 18.4463 16.1252 18.511 16.1997L18.7806 15.9644ZM17.3567 11.6626C16.8483 11.6626 16.4359 11.6153 16.4358 12.1236C16.436 12.632 16.8483 13.0444 17.3567 13.0445C17.8651 13.0444 18.2775 12.632 18.2776 12.1236C18.2775 11.6153 17.8652 11.6626 17.3567 11.6626ZM23.0657 11.6626C22.5573 11.6626 22.1449 11.6153 22.1448 12.1236C22.145 12.632 22.5573 13.0444 23.0657 13.0445C23.5742 13.0445 23.9865 12.632 23.9866 12.1236C23.9865 11.6152 23.5742 11.6626 23.0657 11.6626Z" fill="white"/>
</svg>
