<svg xmlns="http://www.w3.org/2000/svg" width="43" height="43" fill="none"><rect width="43" height="43" fill="#EF3124" rx="21.5"/><path fill="#fff" d="M20.588 4.664c.048.016.063.05.092.091.105.147.087.304 0 .461-.05.089-.158.086-.184.184a.4.4 0 0 0 0 .13l1.188.238s.867.22 1.382.461c.497.233.768.394 1.197.736.397.317.61.518.92.921.305.396.474.637.645 1.106.102.278.15.442.184.736.028.25 0 .645 0 .645l.737-.645c.01-.009.373-.322.645-.46.172-.089.274-.13.46-.184.175-.052.278-.071.46-.092a2.1 2.1 0 0 1 1.013.092c.01.006.242.153.369.276.24.234.455.727.46.736 0 0 .068.28.092.461.053.392.029.618 0 1.013-.02.289-.024.454-.092.736a3.3 3.3 0 0 1-.277.737c-.124.262-.186.418-.368.644-.208.258-.354.394-.645.553a2 2 0 0 1-.46.184 2 2 0 0 1-.46.092c-.287.021-.73-.09-.737-.092.001.008.026.23 0 .369-.02.111-.053.169-.091.276-.093.257-.134.41-.277.644-.146.24-.258.359-.46.553-.167.16-.284.222-.46.368-.295.244-.418.435-.737.645-.363.239-1.014.46-1.014.46s1.568-.26 2.58-.368c1.003-.108 2.577-.184 2.577-.184h1.29c.015 0 .744-.01 1.197.092.41.092 1.013.368 1.013.368.007-.013.555-1.013.92-1.104.369-.092.737.091.737.091l.184-.184s-.092 0 .276-.184 1.658 0 1.658 0v.092h.276l.092.092s.07.403 0 .644c-.044.152-.18.361-.185.368 0 0 .68-.196.83.093.082.16.06.291 0 .46-.044.122-.104.176-.185.276-.096.12-.148.194-.276.277-.068.043-.11.06-.184.092-.105.044-.276.093-.276.093-.005 0-.398.042-.645 0a3 3 0 0 1-.553-.185c-.007.007-.315.315-.552.46-.138.084-.369.184-.369.184a5 5 0 0 1-.276.645c-.148.268-.455.638-.46.645v.276c.001.002.062.11.092.184.133.334.062.567 0 .92-.026.146-.092.37-.092.37-.004.007-.103.179-.184.276a1.3 1.3 0 0 1-.184.184c-.1.083-.16.128-.276.184a.9.9 0 0 1-.277.092c-.106.017-.172.028-.276 0-.125-.034-.18-.098-.277-.185-.037-.033-.06-.052-.091-.091-.05-.064-.08-.105-.092-.184-.016-.113.024-.186.092-.276.03-.041.065-.05.091-.093.056-.093-.028-.173 0-.277.022-.077.07-.107.093-.183.043-.138.026-.227 0-.368-.02-.112-.062-.167-.093-.277-.05-.176-.05-.282-.091-.46-.033-.145-.02-.24-.092-.369-.126-.226-.328-.238-.553-.368a4 4 0 0 0-.553-.276c-.378-.156-.609-.204-1.012-.277-.426-.076-.672-.074-1.105-.092-.395-.015-1.013 0-1.013 0-.016 0-.628.017-1.013.092-.369.073-.57.146-.921.277-.332.123-.508.216-.828.368-.29.137-.737.369-.737.369l-.092.275s-.08.335-.092.553c-.018.325.04.508.092.83.075.473.085.756.276 1.196.115.266.203.407.368.645.19.272.553.645.553.645.004-.004.593-.49 1.013-.738.443-.261.714-.372 1.197-.552.49-.182.783-.236 1.29-.369.286-.075.44-.15.735-.183.25-.029.45-.16.645 0 .148.12.183.449.184.46 0 0 .257 1.88 0 3.039-.032.144-.092.367-.092.368 0 0 .185-.37.369-.553.18-.18.542-.363.552-.368 0 0 .468-.102.737 0a.7.7 0 0 1 .183.092c.171.12.276.459.277.46l.276.093c.108.035.196.012.277.092.056.057.056.112.091.184.108.216.236.315.277.553.024.141.044.23 0 .368-.04.123-.101.177-.185.276-.065.078-.183.185-.183.185a.7.7 0 0 1 0 .183.35.35 0 0 1-.092.185c-.056.06-.18.107-.185.108 0 0-.056.06-.103.076a.2.2 0 0 1-.14 0c-.055-.016-.07-.059-.125-.076-.069-.021-.113-.009-.184 0a.8.8 0 0 0-.277.093c-.223.111-.46.443-.46.443-.006.008-.295.34-.46.57-.245.34-.28.601-.553.92-.131.155-.2.253-.368.369-.132.091-.218.13-.369.184-.139.051-.22.092-.368.092a.8.8 0 0 1-.368-.092 1 1 0 0 1-.277-.184 1.3 1.3 0 0 1-.183-.185c-.083-.099-.138-.154-.185-.275-.078-.201-.043-.342 0-.553.039-.19.154-.27.185-.46.023-.143.01-.226 0-.369-.014-.218-.062-.336-.093-.553-.05-.357-.054-.561-.092-.92-.034-.324-.11-.504-.091-.829.012-.218.091-.552.091-.552s-.438.57-.736.92c-.313.37-.49.577-.83.921-.662.673-1.84 1.566-1.84 1.566s.35.264.552.46c.238.23.348.384.553.644.27.345.372.577.644.921.237.3.645.737.645.737.011.012.477.492.828.737.3.209.816.453.829.46 0 0 .5.149.829.184.322.035.506.03.828 0 .478-.043.743-.123 1.197-.276.488-.165.782-.25 1.198-.553.328-.24.47-.428.736-.736.234-.273.375-.424.553-.737.191-.336.228-.56.368-.92.11-.287.18-.445.276-.737a10 10 0 0 0 .368-1.473c.041-.215.052-.338.092-.553.033-.18.051-.282.093-.46.084-.362.272-.91.276-.92 0 0 .104-.175.184-.277.097-.124.141-.214.276-.294a.7.7 0 0 1 .244-.092c.119-.023.19-.013.309 0a2 2 0 0 1 .368.092s.26.257.368.46c.14.263.132.446.185.737.059.32.092.83.092.83l-.092 1.196c-.036.468-.18.801-.368 1.29-.25.645-.45.987-.83 1.565-.406.62-.669.952-1.197 1.473-.492.484-.784.756-1.38 1.105-.571.334-.922.494-1.566.645a4.73 4.73 0 0 1-1.565.11 4.7 4.7 0 0 1-.737-.094c-.256-.053-.396-.101-.644-.184a7 7 0 0 1-1.106-.46c-.373-.19-.584-.302-.92-.552-.49-.365-.713-.638-1.105-1.106-.315-.374-.42-.64-.737-1.012-.33-.387-.517-.613-.921-.921-.334-.254-.51-.473-.921-.553-.757-.148-1.025.653-1.75.921-.523.194-.857.175-1.38.368-.408.15-.642.236-1.014.461-.307.186-.479.302-.736.553-.197.192-.45.538-.46.551.022-.001.792-.071 1.29-.091.646-.026 1.656 0 1.656 0 .005 0 .158.017.184.091.032.096-.18.183-.184.185.004-.002.186-.068.277.553.091.627-.528 1.564-.83 2.578-.149.502-.264.776-.368 1.289-.043.215.03.371-.091.553-.057.084-.105.121-.185.183a.8.8 0 0 1-.368.185c-.14.031-.225 0-.368 0-.108 0-.173.028-.277 0-.077-.021-.108-.065-.184-.092-.204-.072-.337.018-.552 0-.218-.018-.354-.001-.553-.093-.117-.054-.197-.081-.276-.183-.05-.064-.048-.117-.092-.185-.082-.127-.274-.274-.276-.276s-.076-.106-.093-.184c-.016-.07-.032-.12 0-.184.023-.046.057-.056.093-.092l.183-.185.185-.183.46-.093.093-.184s.143-.405.276-.644c.15-.27.292-.385.46-.645.114-.176.318-.255.276-.46a.6.6 0 0 0-.091-.184s-.054-.061-.093-.093c-.327-.265-.613.236-1.013.368-.357.118-.547.241-.92.276-.18.017-.286.044-.46 0a.7.7 0 0 1-.369-.183c-.095-.089-.121-.163-.184-.276-.185-.328-.224-.55-.277-.921-.051-.356 0-.562 0-.921 0-.396-.02-.618 0-1.013.03-.58.039-.912.185-1.474.126-.484.393-.7.46-1.197.038-.285.013-.449 0-.736-.038-.803-.277-1.227-.368-2.026-.107-.93-.157-1.46-.092-2.394.038-.543.084-.846.183-1.381.086-.467.273-1.182.277-1.197-.011.002-.563.088-.921.092-.397.003-.62-.033-1.013-.092-.698-.106-1.08-.238-1.75-.461a10 10 0 0 1-1.196-.46 16 16 0 0 1-1.197-.645s-.65-.644-1.106-1.012c-.38-.308-1.013-.738-1.013-.738l-.552-.276c-.014.002-.396.074-.645.093-.287.021-.45.031-.736 0-.331-.037-.535-.046-.83-.201-.155-.082-.253-.126-.368-.26-.214-.252-.171-.497-.183-.828-.01-.29.092-.738.092-.738-.003-.006-.106-.222-.092-.368.015-.16.1-.231.183-.368.12-.195.367-.459.369-.46 0-.013.012-.3.092-.46.126-.252.294-.351.552-.462.234-.1.646-.092.646-.092-.002-.005-.203-.726-.185-1.197.01-.254.015-.402.092-.644.073-.23.116-.373.276-.552a1.2 1.2 0 0 1 .368-.277c.07-.04.111-.06.185-.092.104-.045.167-.061.276-.092.177-.05.277-.1.46-.092.148.007.266-.015.368.092a.34.34 0 0 1 .093.184c.016.07 0 .113 0 .184 0 .144.031.228 0 .368-.035.157-.124.22-.184.37-.123.303-.184.816-.185.828v.368l.093.369.276.644c.006.022.218.875.46 1.381.277.579.908 1.365.921 1.381 0 0 .367.474.645.737.297.283.829.645.829.645.014.01.543.384.92.553.51.227 1.382.368 1.382.368s1.121-.125 1.841-.185c.43-.035 1.332-.297 1.587-.372.05-.183.067-.682-1.036-1.123-.236-.094-.524-.13-.736-.271-.278-.184-.645-.374-.645-.374a1.56 1.56 0 0 1-.827-.552c-.224-.281-.186-.277-.462-.645-.122-.162-.185-.299-.276-.46-.142-.253-.08-.5-.276-.714-.346-.38-.76-.28-1.196-.553-.433-.271-.678-.444-1.014-.83-.255-.292-.389-.475-.551-.827-.172-.373-.283-.603-.277-1.013.004-.219.04-.34.092-.553.055-.22.075-.353.185-.553.086-.157.158-.232.275-.368.133-.154.21-.242.37-.368.164-.13.27-.188.46-.276.205-.096.552-.185.552-.185.007 0 .283-.013.46 0 .218.016.34.04.553.093.22.054.342.097.552.184.223.091.553.276.553.276l.092-.092s.079-.46.183-.737c.13-.343.455-.82.461-.828 0 0 .406-.55.737-.83.135-.114.361-.271.368-.276l.46-.276v-.092s-.164-.068-.275-.092c-.211-.045-.553.075-.553 0v-.093c.016-.048.093-.091.093-.091l.275-.092s.11-.062.185-.092c.137-.056.223-.063.368-.093.383-.079.996-.091 1.012-.092a5 5 0 0 1-.368-.184c-.111-.066-.25-.057-.276-.184a.4.4 0 0 1 0-.091l.368-.093c.144-.036.22-.092.37-.092.147 0 .225.05.367.092.11.032.277.093.277.093s-.053-.115-.093-.185c-.09-.156-.254-.19-.275-.368-.006-.043 0-.11 0-.11.017 0 .527-.001.828.11.147.054.358.177.368.183l.368.37.193-.294c.004-.004.46-.444.83-.46.035-.002.057-.012.091 0m2.121 9.817a.18.18 0 0 0-.254.254l.117.116-.01.007q0 .003-.002.005l-.064.068-.188.198c-.161.163-.385.381-.64.597a5.4 5.4 0 0 1-.811.583c-.28.157-.531.244-.733.238a1.97 1.97 0 0 1-1.343-.583l-.135.119-.135.117h.001l.002.004.006.006a1 1 0 0 0 .105.102 2.33 2.33 0 0 0 1.49.594c.298.008.62-.117.917-.285.303-.17.604-.398.868-.622a10 10 0 0 0 .86-.824l.052-.057q.008-.009.012-.014l.115.114a.18.18 0 0 0 .294-.194l-.04-.06zm-3.928 1.483a.18.18 0 0 0-.27.236zm-1.424-4.301c-.509 0-.921-.048-.921.46a.921.921 0 0 0 1.842 0c0-.508-.413-.46-.921-.46m5.709 0c-.509 0-.921-.048-.921.46a.921.921 0 0 0 1.842 0c0-.508-.413-.46-.921-.46"/></svg>