<svg width="25" height="28" viewBox="0 0 25 28" fill="currentColor" xmlns="http://www.w3.org/2000/svg">
<path d="M11.5235 0.111403C15.43 -0.265688 18.7217 2.81179 18.7217 6.64363V7.71394C20.7061 7.91524 22.1126 8.54168 23.001 9.59773C24.0916 10.8944 24.1975 12.6039 24.0196 14.213L24.0176 14.2257L23.0723 21.7843L23.0733 21.7852C22.9347 23.0787 22.6106 24.4808 21.4707 25.5225C20.3384 26.5569 18.5758 27.0792 15.9483 27.0792H8.37308C5.74586 27.079 3.9838 26.5569 2.8516 25.5225C1.71626 24.485 1.39055 23.09 1.25101 21.8009L0.303747 14.2257L0.302771 14.213C0.124801 12.604 0.230909 10.8944 1.32133 9.59773C2.20936 8.54211 3.61555 7.91551 5.59867 7.71394V6.88289C5.59893 3.64062 8.18027 0.42276 11.5235 0.110427V0.111403ZM7.73636 12.4005C7.08831 12.4006 6.56274 12.9263 6.56254 13.5743C6.56283 14.2223 7.08837 14.748 7.73636 14.7481H7.74711C8.39514 14.748 8.92064 14.2223 8.92093 13.5743C8.92073 12.9262 8.3952 12.4006 7.74711 12.4005H7.73636ZM16.5743 12.4005C15.9262 12.4006 15.4006 12.9263 15.4004 13.5743C15.4007 14.2222 15.9263 14.7479 16.5743 14.7481H16.585C17.2331 14.7481 17.7585 14.2223 17.7588 13.5743C17.7586 12.9262 17.2332 12.4005 16.585 12.4005H16.5743ZM16.961 6.64363C16.961 3.83585 14.5491 1.58623 11.6905 1.86336L11.6866 1.86433C9.34963 2.08301 7.36065 4.44466 7.36039 6.88289V7.64265H16.961V6.64363Z"/>
</svg>
