<svg width="29" height="30" viewBox="0 0 29 30" fill="currentColor" xmlns="http://www.w3.org/2000/svg">
<path d="M11.4229 1.91994C13.1598 0.314465 15.8402 0.314429 17.5771 1.91994L26.7578 10.4082C27.6856 11.266 28.2137 12.4728 28.2139 13.7363V24.7334C28.2138 27.2368 26.184 29.2666 23.6807 29.2666H19.9434V23.2403H19.9385C19.9005 21.5936 19.3908 20.1434 18.5361 19.0674V18.9131H18.4102C17.448 17.7866 16.0888 17.1094 14.499 17.1094C13.0285 17.1095 11.629 17.5834 10.6055 18.6914C9.58922 19.7917 9.0558 21.3962 9.05566 23.4375H9.09961V29.2666H5.31934C2.81603 29.2665 0.786177 27.2367 0.786133 24.7334V13.7363C0.786332 12.4727 1.31433 11.266 2.24219 10.4082L11.4229 1.91994Z"/>
</svg>
