<!-- assets/icons/MapIcon.svg -->
<svg width="24" height="28" viewBox="0 0 24 28" fill="currentColor" xmlns="http://www.w3.org/2000/svg">
  <path d="M12.1027 0.164554C17.102 0.168066 22.188 3.11528 23.5323 9.0542C25.0928 15.9476 20.7917 21.6816 17.2491 25.0835L17.2482 25.0825C14.3702 27.8586 9.82066 27.8569 6.93274 25.0835L6.93176 25.0825C3.40215 21.6808 -0.898996 15.9342 0.661254 9.04151L0.798949 8.49268C2.33065 2.92075 7.25936 0.161356 12.1027 0.164554ZM12.0968 6.71924C9.43804 6.71934 7.28235 8.87491 7.28235 11.5337C7.28254 14.1923 9.43816 16.3481 12.0968 16.3481C14.7555 16.3481 16.9111 14.1923 16.9113 11.5337C16.9113 8.8749 14.7556 6.71931 12.0968 6.71924Z"/>
</svg>