<svg width="35" height="35" viewBox="0 0 35 35" fill="currentColor" xmlns="http://www.w3.org/2000/svg">
<path d="M28.1457 11.5499V19.0604C28.1457 23.552 25.5791 25.477 21.7291 25.477H8.91031C8.25406 25.477 7.62698 25.4187 7.04364 25.2875C6.67906 25.2291 6.32907 25.1271 6.00824 25.0104C3.82074 24.1937 2.49365 22.2979 2.49365 19.0604V11.5499C2.49365 7.05825 5.06031 5.1333 8.91031 5.1333H21.7291C24.9957 5.1333 27.3437 6.51871 27.9707 9.68329C28.0728 10.2666 28.1457 10.8645 28.1457 11.5499Z" stroke="#EFEFF4" stroke-width="1.5" stroke-miterlimit="10" stroke-linecap="round" stroke-linejoin="round"/>
<path d="M32.5225 15.9252V23.4357C32.5225 27.9273 29.9558 29.8523 26.1058 29.8523H13.2871C12.2079 29.8523 11.2308 29.7065 10.385 29.3857C8.64959 28.744 7.46833 27.4169 7.04541 25.2878C7.62874 25.419 8.25583 25.4773 8.91208 25.4773H21.7308C25.5808 25.4773 28.1475 23.5523 28.1475 19.0607V11.5502C28.1475 10.8648 28.0892 10.2523 27.9725 9.68359C30.7433 10.2669 32.5225 12.221 32.5225 15.9252Z" fill="#EFEFF4" stroke="#EFEFF4" stroke-width="1.5" stroke-miterlimit="10" stroke-linecap="round" stroke-linejoin="round"/>
<path d="M15.31 19.1624C17.4363 19.1624 19.16 17.4387 19.16 15.3124C19.16 13.1861 17.4363 11.4624 15.31 11.4624C13.1837 11.4624 11.46 13.1861 11.46 15.3124C11.46 17.4387 13.1837 19.1624 15.31 19.1624Z" stroke="#EFEFF4" stroke-width="1.5" stroke-miterlimit="10" stroke-linecap="round" stroke-linejoin="round"/>
<path d="M6.9707 12.104V18.5207" stroke="#EFEFF4" stroke-width="1.5" stroke-miterlimit="10" stroke-linecap="round" stroke-linejoin="round"/>
<path d="M23.6567 12.1045V18.5212" stroke="#EFEFF4" stroke-width="1.5" stroke-miterlimit="10" stroke-linecap="round" stroke-linejoin="round"/>
</svg>
